<svg width="17" height="18" viewBox="0 0 17 18" fill="none" xmlns="http://www.w3.org/2000/svg">
<rect width="17" height="18" fill="#E3E3E3"/>
<g id="Home paga" clip-path="url(#clip0_0_1)">
<rect width="393" height="849" transform="translate(-25 -126)" fill="white"/>
<path id="Latest News" d="M-4.92 8V-4.6H-2.436V5.516H2.64V8H-4.92ZM11.6254 -1H14.1094V8H11.6164L11.4994 7.064C11.2654 7.412 10.9654 7.694 10.5994 7.91C10.2334 8.126 9.80438 8.234 9.31237 8.234C8.64038 8.234 8.01338 8.108 7.43138 7.856C6.84938 7.604 6.33637 7.256 5.89237 6.812C5.44837 6.368 5.10037 5.855 4.84837 5.273C4.60237 4.685 4.47937 4.055 4.47937 3.383C4.47937 2.741 4.59637 2.141 4.83037 1.583C5.06438 1.025 5.39438 0.533 5.82037 0.107C6.24637 -0.319001 6.73537 -0.652001 7.28738 -0.892C7.84538 -1.132 8.44538 -1.252 9.08738 -1.252C9.63938 -1.252 10.1344 -1.135 10.5724 -0.901C11.0164 -0.667 11.4034 -0.37 11.7334 -0.0100004L11.6254 -1ZM9.24938 5.849C9.65738 5.849 10.0264 5.744 10.3564 5.534C10.6864 5.324 10.9474 5.042 11.1394 4.688C11.3314 4.328 11.4274 3.932 11.4274 3.5C11.4274 3.062 11.3314 2.666 11.1394 2.312C10.9474 1.958 10.6864 1.676 10.3564 1.466C10.0264 1.256 9.65738 1.151 9.24938 1.151C8.83538 1.151 8.46038 1.256 8.12438 1.466C7.78838 1.676 7.52138 1.961 7.32338 2.321C7.12538 2.675 7.02638 3.068 7.02638 3.5C7.02638 3.932 7.12538 4.328 7.32338 4.688C7.52738 5.042 7.79738 5.324 8.13338 5.534C8.46938 5.744 8.84138 5.849 9.24938 5.849ZM21.8938 1.484H20.2738V8H17.7898V1.484H16.5478V-1H17.7898V-3.826H20.2738V-1H21.8938V1.484ZM28.3659 8.234C27.5379 8.234 26.7819 8.021 26.0979 7.595C25.4199 7.169 24.8769 6.596 24.4689 5.876C24.0669 5.156 23.8659 4.361 23.8659 3.491C23.8659 2.837 23.9829 2.225 24.2169 1.655C24.4509 1.079 24.7719 0.575 25.1799 0.143C25.5939 -0.295 26.0739 -0.637 26.6199 -0.883C27.1659 -1.129 27.7479 -1.252 28.3659 -1.252C29.0799 -1.252 29.7309 -1.099 30.3189 -0.793001C30.9129 -0.487001 31.4139 -0.0700005 31.8219 0.457999C32.2359 0.985999 32.5299 1.583 32.7039 2.249C32.8839 2.915 32.9139 3.608 32.7939 4.328H26.5479C26.6259 4.592 26.7459 4.832 26.9079 5.048C27.0759 5.258 27.2799 5.426 27.5199 5.552C27.7659 5.678 28.0479 5.744 28.3659 5.75C28.6779 5.756 28.9659 5.684 29.2299 5.534C29.4939 5.384 29.7189 5.183 29.9049 4.931L32.4429 5.516C32.0769 6.314 31.5309 6.968 30.8049 7.478C30.0789 7.982 29.2659 8.234 28.3659 8.234ZM26.4579 2.492H30.2829C30.2049 2.192 30.0729 1.922 29.8869 1.682C29.7009 1.442 29.4759 1.253 29.2119 1.115C28.9539 0.977 28.6719 0.908 28.3659 0.908C28.0659 0.908 27.7839 0.977 27.5199 1.115C27.2619 1.253 27.0399 1.442 26.8539 1.682C26.6739 1.916 26.5419 2.186 26.4579 2.492ZM38.0014 8.162C37.5394 8.126 37.0954 8.03 36.6694 7.874C36.2434 7.712 35.8624 7.496 35.5264 7.226C35.1964 6.95 34.9384 6.62 34.7524 6.236L36.8404 5.336C36.9064 5.432 37.0054 5.537 37.1374 5.651C37.2694 5.759 37.4284 5.855 37.6144 5.939C37.8064 6.023 38.0284 6.065 38.2804 6.065C38.4664 6.065 38.6464 6.044 38.8204 6.002C38.9944 5.954 39.1354 5.879 39.2434 5.777C39.3514 5.669 39.4054 5.528 39.4054 5.354C39.4054 5.162 39.3364 5.015 39.1984 4.913C39.0604 4.811 38.8924 4.736 38.6944 4.688C38.5024 4.634 38.3164 4.589 38.1364 4.553C37.5844 4.457 37.0624 4.286 36.5704 4.04C36.0844 3.788 35.6884 3.464 35.3824 3.068C35.0764 2.672 34.9234 2.198 34.9234 1.646C34.9234 1.04 35.0824 0.518 35.4004 0.0799995C35.7184 -0.364 36.1324 -0.706 36.6424 -0.946C37.1524 -1.186 37.7044 -1.306 38.2984 -1.306C39.0004 -1.306 39.6514 -1.159 40.2514 -0.865001C40.8514 -0.571001 41.3344 -0.157 41.7004 0.376999L39.7384 1.538C39.6604 1.424 39.5584 1.316 39.4324 1.214C39.3124 1.106 39.1714 1.016 39.0094 0.944C38.8534 0.866 38.6854 0.821 38.5054 0.809C38.2714 0.791 38.0584 0.806 37.8664 0.854C37.6744 0.896 37.5214 0.977 37.4074 1.097C37.2994 1.217 37.2454 1.379 37.2454 1.583C37.2454 1.781 37.3324 1.928 37.5064 2.024C37.6804 2.114 37.8814 2.183 38.1094 2.231C38.3374 2.273 38.5384 2.324 38.7124 2.384C39.2344 2.552 39.7234 2.768 40.1794 3.032C40.6414 3.29 41.0134 3.608 41.2954 3.986C41.5774 4.364 41.7094 4.808 41.6914 5.318C41.6914 5.912 41.5144 6.434 41.1604 6.884C40.8064 7.328 40.3474 7.667 39.7834 7.901C39.2254 8.129 38.6314 8.216 38.0014 8.162ZM49.1983 1.484H47.5783V8H45.0943V1.484H43.8523V-1H45.0943V-3.826H47.5783V-1H49.1983V1.484ZM57.308 8V-4.6H59.99L64.904 3.509V-4.6H67.388V8H64.706L59.792 -0.109V8H57.308ZM74.4066 8.234C73.5786 8.234 72.8226 8.021 72.1386 7.595C71.4606 7.169 70.9176 6.596 70.5096 5.876C70.1076 5.156 69.9066 4.361 69.9066 3.491C69.9066 2.837 70.0236 2.225 70.2576 1.655C70.4916 1.079 70.8126 0.575 71.2206 0.143C71.6346 -0.295 72.1146 -0.637 72.6606 -0.883C73.2066 -1.129 73.7886 -1.252 74.4066 -1.252C75.1206 -1.252 75.7716 -1.099 76.3596 -0.793001C76.9536 -0.487001 77.4546 -0.0700005 77.8626 0.457999C78.2766 0.985999 78.5706 1.583 78.7446 2.249C78.9246 2.915 78.9546 3.608 78.8346 4.328H72.5886C72.6666 4.592 72.7866 4.832 72.9486 5.048C73.1166 5.258 73.3206 5.426 73.5606 5.552C73.8066 5.678 74.0886 5.744 74.4066 5.75C74.7186 5.756 75.0066 5.684 75.2706 5.534C75.5346 5.384 75.7596 5.183 75.9456 4.931L78.4836 5.516C78.1176 6.314 77.5716 6.968 76.8456 7.478C76.1196 7.982 75.3066 8.234 74.4066 8.234ZM72.4986 2.492H76.3236C76.2456 2.192 76.1136 1.922 75.9276 1.682C75.7416 1.442 75.5166 1.253 75.2526 1.115C74.9946 0.977 74.7126 0.908 74.4066 0.908C74.1066 0.908 73.8246 0.977 73.5606 1.115C73.3026 1.253 73.0806 1.442 72.8946 1.682C72.7146 1.916 72.5826 2.186 72.4986 2.492ZM85.8273 8H83.3793L80.3733 -1H82.8033L84.6123 4.391L86.4033 -1H88.8333L90.6243 4.391L92.4243 -1H94.8633L91.8483 8H89.4093L87.6183 2.6L85.8273 8ZM99.7822 8.162C99.3202 8.126 98.8762 8.03 98.4502 7.874C98.0242 7.712 97.6432 7.496 97.3072 7.226C96.9772 6.95 96.7192 6.62 96.5332 6.236L98.6212 5.336C98.6872 5.432 98.7862 5.537 98.9182 5.651C99.0502 5.759 99.2092 5.855 99.3952 5.939C99.5872 6.023 99.8092 6.065 100.061 6.065C100.247 6.065 100.427 6.044 100.601 6.002C100.775 5.954 100.916 5.879 101.024 5.777C101.132 5.669 101.186 5.528 101.186 5.354C101.186 5.162 101.117 5.015 100.979 4.913C100.841 4.811 100.673 4.736 100.475 4.688C100.283 4.634 100.097 4.589 99.9172 4.553C99.3652 4.457 98.8432 4.286 98.3512 4.04C97.8652 3.788 97.4692 3.464 97.1632 3.068C96.8572 2.672 96.7042 2.198 96.7042 1.646C96.7042 1.04 96.8632 0.518 97.1812 0.0799995C97.4992 -0.364 97.9132 -0.706 98.4232 -0.946C98.9332 -1.186 99.4852 -1.306 100.079 -1.306C100.781 -1.306 101.432 -1.159 102.032 -0.865001C102.632 -0.571001 103.115 -0.157 103.481 0.376999L101.519 1.538C101.441 1.424 101.339 1.316 101.213 1.214C101.093 1.106 100.952 1.016 100.79 0.944C100.634 0.866 100.466 0.821 100.286 0.809C100.052 0.791 99.8392 0.806 99.6472 0.854C99.4552 0.896 99.3022 0.977 99.1882 1.097C99.0802 1.217 99.0262 1.379 99.0262 1.583C99.0262 1.781 99.1132 1.928 99.2872 2.024C99.4612 2.114 99.6622 2.183 99.8902 2.231C100.118 2.273 100.319 2.324 100.493 2.384C101.015 2.552 101.504 2.768 101.96 3.032C102.422 3.29 102.794 3.608 103.076 3.986C103.358 4.364 103.49 4.808 103.472 5.318C103.472 5.912 103.295 6.434 102.941 6.884C102.587 7.328 102.128 7.667 101.564 7.901C101.006 8.129 100.412 8.216 99.7822 8.162Z" fill="#4A4A4A"/>
<rect id="Rectangle 184" x="-25" y="-126" width="393" height="849" fill="black" fill-opacity="0.56"/>
<rect id="Rectangle 185" x="-25" y="-130" width="302" height="855" fill="white"/>
<g id="Group">
<g id="Group_2">
<path id="Vector" d="M8.96292 0.188851C8.90219 0.128988 8.83003 0.0814933 8.7506 0.049087C8.67116 0.0166808 8.586 0 8.5 0C8.414 0 8.32884 0.0166808 8.2494 0.049087C8.16997 0.0814933 8.09781 0.128988 8.03708 0.188851L0.190924 7.90264C0.130245 7.96245 0.0821503 8.03343 0.0493904 8.11152C0.0166305 8.18961 -0.000152411 8.27329 1.04288e-06 8.35776V17.3572C1.04288e-06 17.5277 0.0688882 17.6912 0.191508 17.8117C0.314128 17.9323 0.480436 18 0.653847 18H6.53846C6.71187 18 6.87818 17.9323 7.0008 17.8117C7.12342 17.6912 7.19231 17.5277 7.19231 17.3572V12.2147H9.80769V17.3572C9.80769 17.5277 9.87658 17.6912 9.9992 17.8117C10.1218 17.9323 10.2881 18 10.4615 18H16.3462C16.5196 18 16.6859 17.9323 16.8085 17.8117C16.9311 17.6912 17 17.5277 17 17.3572V8.35776C17.0002 8.27329 16.9834 8.18961 16.9506 8.11152C16.9178 8.03343 16.8698 7.96245 16.8091 7.90264L15.0385 6.16318V1.9296C15.0385 1.75911 14.9696 1.59561 14.847 1.47506C14.7243 1.35451 14.558 1.28678 14.3846 1.28678H13.0769C12.9035 1.28678 12.7372 1.35451 12.6146 1.47506C12.492 1.59561 12.4231 1.75911 12.4231 1.9296V3.59192L8.96292 0.188851ZM1.30769 16.7144V8.62388L8.5 1.55291L15.6923 8.62388V16.7144H11.1154V11.5718C11.1154 11.4014 11.0465 11.2379 10.9239 11.1173C10.8013 10.9967 10.6349 10.929 10.4615 10.929H6.53846C6.36505 10.929 6.19874 10.9967 6.07612 11.1173C5.9535 11.2379 5.88462 11.4014 5.88462 11.5718V16.7144H1.30769Z" fill="#353535"/>
</g>
</g>
</g>
<defs>
<clipPath id="clip0_0_1">
<rect width="393" height="849" fill="white" transform="translate(-25 -126)"/>
</clipPath>
</defs>
</svg>
