<svg width="12" height="18" viewBox="0 0 12 18" fill="none" xmlns="http://www.w3.org/2000/svg">
<path d="M5.125 18L0.625 10.15V8.3H2.125C2.725 8.3 3.25 8.21667 3.7 8.05C4.16667 7.86667 4.55 7.60833 4.85 7.275C5.16667 6.94167 5.38333 6.54167 5.5 6.075H0.625V4.225H5.475C5.375 3.79167 5.2 3.40833 4.95 3.075C4.71667 2.74167 4.4 2.48333 4 2.3C3.61667 2.1 3.15 2 2.6 2H0.625V0.149999H11.9V2H7.975C8.25833 2.31667 8.49167 2.65833 8.675 3.025C8.875 3.39167 9.00833 3.79167 9.075 4.225H11.9V6.075H9.125C8.95833 7.30833 8.48333 8.275 7.7 8.975C6.91667 9.65833 5.90833 10.125 4.675 10.375L9.575 18H5.125Z" fill="#2C2C2C"/>
</svg>
