<svg width="244" height="244" viewBox="0 0 244 244" fill="none" xmlns="http://www.w3.org/2000/svg">
<circle cx="122" cy="122" r="122" fill="white"/>
<path d="M132.991 137.534C132.991 137.534 156.491 190.544 181.141 166.204C181.141 166.204 153.681 134.024 132.991 137.534Z" fill="#EE224A"/>
<path d="M176.141 61.8943C176.141 61.8943 161.141 106.244 121.941 122.314C121.941 122.314 120.641 77.7743 171.461 53.2043C171.461 53.2043 184.531 47.8843 176.131 61.8943H176.141Z" fill="#00B481"/>
<path d="M28.9212 104.784C28.9212 104.784 45.1412 112.424 47.9112 118.164C50.6912 123.914 59.4612 148.474 71.6012 152.954C83.7412 157.424 86.0112 155.514 87.1212 148.294C88.2312 141.084 76.7412 96.5543 28.9212 104.774V104.784Z" fill="#8B79B8"/>
<path d="M114.691 109.154C113.651 109.154 112.661 108.594 112.151 107.624C101.531 87.4743 76.8612 84.0043 76.6112 83.9743C75.0412 83.7643 73.9312 82.3243 74.1412 80.7543C74.3512 79.1843 75.7812 78.0843 77.3512 78.2743C78.2912 78.3943 96.8512 80.9643 110.011 94.8943C109.621 75.7343 121.041 60.8843 121.621 60.1343C122.601 58.8843 124.401 58.6643 125.651 59.6443C126.901 60.6243 127.121 62.4243 126.141 63.6743C125.991 63.8743 110.851 83.6543 117.421 105.464C117.851 106.884 117.131 108.384 115.761 108.954C115.401 109.104 115.041 109.164 114.671 109.164L114.691 109.154Z" fill="#333333"/>
<path d="M104.941 196.644C100.441 196.644 95.9612 195.404 91.9712 192.924C82.9012 187.284 78.2912 176.514 79.6512 164.114C79.8812 162.004 80.2112 160.024 80.6212 158.144C73.7812 157.974 67.6112 155.024 62.1712 149.314C55.6212 142.424 51.5012 132.984 48.5012 126.094C47.3112 123.364 46.2812 121.004 45.4712 119.674C42.5112 114.884 36.5912 112.114 32.2612 110.084C29.1612 108.634 27.2812 107.754 26.4112 106.164C25.7512 104.964 25.8912 103.534 26.7912 102.354C28.7812 99.7443 35.7512 97.3443 44.5412 96.2543C52.5612 95.2543 65.6612 94.9143 82.5112 98.9643C97.0912 102.464 109.441 109.344 119.251 119.434C120.371 107.554 124.631 94.0043 135.131 80.4243C145.721 66.7043 156.141 58.7643 163.021 54.5143C170.561 49.8543 177.491 47.3543 180.681 48.1443C182.131 48.5043 183.131 49.5243 183.371 50.8743C183.681 52.6643 182.771 54.5243 181.271 57.5943C179.171 61.8843 176.291 67.7643 176.991 73.3443C177.181 74.8843 177.861 77.3743 178.651 80.2443C180.631 87.4943 183.351 97.4343 182.561 106.904C181.911 114.754 178.951 120.924 173.731 125.344C175.221 126.554 176.721 127.894 178.221 129.394C187.561 138.704 190.971 150.984 187.121 161.434C183.851 170.284 175.991 176.024 166.091 176.784C165.711 176.814 165.331 176.824 164.961 176.824C153.721 176.824 145.131 163.884 137.581 150.994C139.811 158.934 139.431 163.944 136.441 165.914C136.051 166.174 135.611 166.324 135.151 166.374C131.461 166.764 127.861 162.704 124.451 154.344C126.621 169.824 128.311 186.424 118.591 192.614C114.381 195.294 109.661 196.644 104.971 196.644H104.941ZM86.6612 157.614C86.1012 159.764 85.6612 162.134 85.3712 164.744C84.2612 174.894 87.8612 183.604 95.0112 188.054C101.261 191.944 109.111 191.834 115.481 187.774C122.751 183.144 120.271 165.864 118.291 151.974C116.621 140.334 115.341 131.364 118.481 127.074C110.711 117.814 98.9112 108.804 81.1712 104.544C65.5212 100.784 53.3712 101.014 45.9312 101.874C40.3412 102.514 36.3712 103.624 33.9712 104.544C34.2212 104.664 34.4612 104.774 34.6912 104.884C39.3912 107.084 46.5012 110.404 50.3612 116.654C51.3912 118.324 52.4412 120.734 53.7712 123.794C56.6012 130.294 60.4812 139.194 66.3412 145.354C71.0612 150.314 76.3112 152.644 82.2612 152.374C88.0112 136.054 100.611 130.444 107.011 130.444H107.061C110.991 130.464 114.281 133.064 114.891 136.644C115.571 140.664 113.431 148.554 91.4912 156.284C89.8512 156.864 88.2512 157.304 86.6712 157.614H86.6612ZM124.711 124.804C129.811 126.084 134.261 133.804 140.061 143.854C147.241 156.294 156.171 171.784 165.631 171.044C173.231 170.464 179.241 166.124 181.711 159.434C184.781 151.124 181.881 141.164 174.151 133.454C172.311 131.624 170.481 130.054 168.681 128.714C167.261 129.464 165.731 130.124 164.091 130.694C142.291 138.374 135.681 133.534 133.681 129.964C131.881 126.744 132.811 122.584 135.901 120.084C140.811 116.104 154.081 112.634 168.841 121.854C173.631 118.334 176.261 113.234 176.821 106.424C177.521 97.9643 174.961 88.5943 173.091 81.7543C172.211 78.5443 171.521 76.0043 171.271 74.0543C170.361 66.7643 173.811 59.7243 176.091 55.0543C176.201 54.8243 176.321 54.5843 176.441 54.3343C173.991 55.1143 170.201 56.7443 165.441 59.7543C159.111 63.7543 149.501 71.1843 139.661 83.9243C128.501 98.3743 124.951 112.764 124.691 124.804H124.711ZM125.601 137.314C126.521 142.984 127.991 147.604 129.191 150.734C130.831 155.024 132.231 157.474 133.251 158.874C133.161 157.194 132.721 154.494 131.361 150.274C130.311 147.014 128.511 142.404 125.611 137.304L125.601 137.314ZM107.011 136.184C104.921 136.184 100.151 137.384 95.4112 141.894C93.3312 143.874 90.9412 146.814 88.9812 151.064C89.1812 150.994 89.3712 150.934 89.5712 150.864C105.911 145.104 109.571 139.664 109.221 137.594C109.071 136.684 107.981 136.184 107.031 136.184H107.011ZM149.601 121.724C144.941 121.724 141.351 123.064 139.521 124.544C138.751 125.174 138.221 126.324 138.691 127.164C139.721 129.014 145.971 130.994 162.181 125.284C162.381 125.214 162.591 125.134 162.791 125.064C157.931 122.624 153.411 121.734 149.601 121.734V121.724Z" fill="#333333"/>
</svg>
