<!-- Generated by IcoMoon.io -->
<svg version="1.1" xmlns="http://www.w3.org/2000/svg" width="32" height="32" viewBox="0 0 32 32">
<title>children</title>
<path opacity="0.938" fill="#000" d="M8.344-0.031c-0.591 0.096-1.174 0.252-1.75 0.469-2.192 0.959-3.495 2.615-3.906 4.969-0.058 0.77-0.1 1.541-0.125 2.313-0.45 1.225-0.054 2.058 1.188 2.5 0.137 2.067 1.095 3.609 2.875 4.625 0.031 0.395 0.042 0.791 0.031 1.188-1.181 0.244-2.348 0.546-3.5 0.906-1.059 0.42-1.736 1.18-2.031 2.281-0.387 3.259-0.772 6.509-1.156 9.75 0 0.396 0 0.792 0 1.188 0.19 0.919 0.731 1.523 1.625 1.813 1.646 0 3.292 0 4.938 0 0.329-0.302 0.329-0.604 0-0.906-0.666-0.031-1.333-0.042-2-0.031 0.16-2.917 0.327-5.834 0.5-8.75-0.029-0.129-0.071-0.254-0.125-0.375-0.302-0.263-0.583-0.242-0.844 0.063-0.073 0.644-0.125 1.29-0.156 1.938-0.771 0-1.542 0-2.313 0 0.134-1.505 0.311-3.005 0.531-4.5 0.352-0.945 1.029-1.528 2.031-1.75 0.797 1.181 1.88 1.983 3.25 2.406 2.718 0.643 4.895-0.159 6.531-2.406 0.529 0.103 0.977 0.343 1.344 0.719-0.211 0.425-0.346 0.873-0.406 1.344-0.172 1.394-0.329 2.79-0.469 4.188-0.063 0-0.125 0-0.188 0-0.031-0.648-0.083-1.293-0.156-1.938-0.076-0.097-0.17-0.17-0.281-0.219-0.413-0.064-0.642 0.113-0.688 0.531 0.173 2.916 0.34 5.833 0.5 8.75-1.792-0.010-3.583 0-5.375 0.031-0.33 0.302-0.33 0.604 0 0.906 3.979 0 7.958 0 11.938 0 0.327-0.303 0.327-0.605 0-0.906-0.583-0.031-1.166-0.042-1.75-0.031 0.116-2.887 0.262-5.772 0.438-8.656 0.026-0.22-0.036-0.408-0.188-0.563-0.332-0.169-0.593-0.096-0.781 0.219-0.031 0.207-0.042 0.416-0.031 0.625-0.708-0.152-1.417-0.308-2.125-0.469-0.058-0.024-0.1-0.066-0.125-0.125 0.104-0.759 0.198-1.519 0.281-2.281 0.272-1.272 1.053-1.97 2.344-2.094 0.080 0.413 0.195 0.82 0.344 1.219 1.051 2.094 2.749 3.021 5.094 2.781 2.217-0.488 3.519-1.853 3.906-4.094 0.28 0.093 0.561 0.187 0.844 0.281 0.656 0.24 1.104 0.688 1.344 1.344 0.214 0.973 0.328 1.952 0.344 2.938-0.685 0.177-1.373 0.343-2.063 0.5-0.047-0.231-0.099-0.46-0.156-0.688-0.284-0.328-0.576-0.328-0.875 0 0.090 3.022 0.226 6.043 0.406 9.063-1.854-0.010-3.708 0-5.563 0.031-0.057 0.023-0.109 0.055-0.156 0.094-0.158 0.322-0.106 0.593 0.156 0.813 2.833 0 5.667 0 8.5 0 0.839-0.277 1.381-0.839 1.625-1.688 0-0.438 0-0.875 0-1.313-0.38-3.114-0.744-6.239-1.094-9.375-0.21-1.273-0.908-2.158-2.094-2.656-1.152-0.36-2.319-0.662-3.5-0.906-0.010-0.396 0-0.792 0.031-1.188 1.258-0.695 2.133-1.716 2.625-3.063 0.153 0.34 0.257 0.694 0.313 1.063 0.030 0.585 0.030 1.168 0 1.75 0.061 0.436 0.301 0.717 0.719 0.844 0.614 0.006 1.218-0.077 1.813-0.25 0.651-0.276 0.932-0.766 0.844-1.469-0.396-1.418-1.084-2.668-2.063-3.75-0.011-0.29-0.063-0.571-0.156-0.844 0.076-0.148 0.128-0.304 0.156-0.469 0.022-0.532 0.053-1.063 0.094-1.594 0.010-1.449-0.354-2.793-1.094-4.031-0.446-0.247-0.748-0.132-0.906 0.344 0.167 0.365 0.344 0.729 0.531 1.094 0.308 0.764 0.454 1.556 0.438 2.375-0.363-0.114-0.707-0.27-1.031-0.469-0.489 0.018-0.978 0.049-1.469 0.094-0.671 0.012-1.286-0.165-1.844-0.531-0.334-0.313-0.646-0.646-0.938-1-0.345-0.14-0.678-0.119-1 0.063-0.631 0.988-1.537 1.477-2.719 1.469-0.47-0.043-0.939-0.075-1.406-0.094-0.322 0.198-0.666 0.354-1.031 0.469 0.020-2.448 1.114-4.229 3.281-5.344 2.129-0.889 4.129-0.66 6 0.688 0.593 0.094 0.812-0.145 0.656-0.719-0.961-0.796-2.055-1.296-3.281-1.5-0.563 0-1.125 0-1.688 0-0.478 0.083-0.957 0.197-1.438 0.344-2.632 1.048-4.142 2.975-4.531 5.781-0.042 0.813-0.042 1.625 0 2.438 0.046 0.189 0.098 0.377 0.156 0.563-0.091 0.284-0.143 0.576-0.156 0.875-1.042 1.146-1.74 2.479-2.094 4 0.018 0.419 0.184 0.763 0.5 1.031 0.599 0.255 1.224 0.412 1.875 0.469 0.554-0.002 0.898-0.273 1.031-0.813-0.022-0.582-0.022-1.166 0-1.75 0.038-0.424 0.163-0.819 0.375-1.188 0.441 1.384 1.295 2.425 2.563 3.125 0.031 0.395 0.042 0.791 0.031 1.188-1.176 0.263-2.343 0.565-3.5 0.906-0.358 0.161-0.691 0.358-1 0.594-0.413-0.321-0.871-0.561-1.375-0.719-1.038-0.28-2.079-0.541-3.125-0.781-0.010-0.396 0-0.792 0.031-1.188 1.765-1.028 2.702-2.57 2.813-4.625 1.296-0.446 1.692-1.3 1.188-2.563 0.043-1.28-0.124-2.53-0.5-3.75-1.023-2.193-2.721-3.505-5.094-3.938-0.521 0-1.042 0-1.563 0zM8.406 0.969c2.801-0.116 4.728 1.113 5.781 3.688 0.227 0.736 0.3 1.486 0.219 2.25-0.447-0.313-0.926-0.573-1.438-0.781-0.458-0.406-0.833-0.875-1.125-1.406-0.336-0.269-0.69-0.3-1.063-0.094-1.169 1.761-2.815 2.49-4.938 2.188-0.515-0.134-1.035-0.197-1.563-0.188-0.189 0.137-0.397 0.231-0.625 0.281-0.037-3.276 1.546-5.255 4.75-5.938zM11.219 5.719c0.313 0.408 0.668 0.793 1.063 1.156 0.3 0.218 0.623 0.395 0.969 0.531 0.042 1.083 0.042 2.167 0 3.25-0.266 1.829-1.277 3.027-3.031 3.594-2.181 0.466-3.838-0.253-4.969-2.156-0.263-0.553-0.409-1.136-0.438-1.75-0.031-0.896-0.042-1.791-0.031-2.688 2.005 0.492 3.859 0.169 5.563-0.969 0.37-0.256 0.662-0.579 0.875-0.969zM22.844 5.969c0.707 0.864 1.623 1.354 2.75 1.469 0.522 0.039 1.043 0.028 1.563-0.031 0.022 1.168-0.009 2.335-0.094 3.5-0.541 2.187-1.937 3.353-4.188 3.5-2.389-0.18-3.785-1.451-4.188-3.813-0.031-1.062-0.042-2.125-0.031-3.188 1.285 0.214 2.472-0.026 3.563-0.719 0.245-0.213 0.453-0.453 0.625-0.719zM17.594 7.719c0.082 0.386 0.082 0.782 0 1.188-0.581-0.397-0.581-0.793 0-1.188zM28.156 7.719c0.551 0.37 0.572 0.766 0.063 1.188-0.062-0.394-0.083-0.79-0.063-1.188zM14.281 7.906c0.434 0.216 0.549 0.549 0.344 1-0.104 0.083-0.208 0.167-0.313 0.25-0.031-0.416-0.042-0.833-0.031-1.25zM3.656 7.969c0.082 0.162 0.124 0.349 0.125 0.563-0.021 0.188-0.042 0.375-0.063 0.563-0.475-0.35-0.496-0.725-0.063-1.125zM17.219 9.844c0.132 0.068 0.267 0.131 0.406 0.188 0.042 0.125 0.042 0.25 0 0.375-0.199-0.146-0.334-0.334-0.406-0.563zM28.406 9.906c0.108 0.021 0.139 0.084 0.094 0.188-0.294 0.451-0.409 0.409-0.344-0.125 0.1 0.017 0.183-0.004 0.25-0.063zM16.594 10.969c0.115 0.104 0.24 0.198 0.375 0.281-0.465 1.025-0.611 2.098-0.438 3.219-0.445-0.058-0.882-0.151-1.313-0.281-0.050-0.068-0.091-0.141-0.125-0.219 0.337-1.091 0.837-2.091 1.5-3zM29.094 10.969c0.715 0.888 1.236 1.888 1.563 3-0.027 0.142-0.11 0.235-0.25 0.281-0.394 0.085-0.79 0.158-1.188 0.219 0.19-1.122 0.044-2.195-0.438-3.219 0.132-0.066 0.236-0.159 0.313-0.281zM10.406 15.219c0.038 0.452 0.090 0.91 0.156 1.375 0.138 0.159 0.294 0.294 0.469 0.406-1.326 0.967-2.638 0.957-3.938-0.031 0.251-0.116 0.428-0.303 0.531-0.563 0.031-0.374 0.042-0.749 0.031-1.125 0.704 0.118 1.412 0.149 2.125 0.094 0.221-0.033 0.43-0.085 0.625-0.156zM21.469 15.219c0.93 0.227 1.867 0.248 2.813 0.063-0.024 0.422 0.008 0.839 0.094 1.25 0.12 0.256 0.318 0.402 0.594 0.438-0.038 1.173-0.621 1.912-1.75 2.219-0.791 0.079-1.447-0.182-1.969-0.781-0.322-0.432-0.436-0.911-0.344-1.438 0.253-0.118 0.431-0.305 0.531-0.563 0.031-0.395 0.042-0.791 0.031-1.188zM5.844 17.219c1.366 1.458 2.991 1.844 4.875 1.156 0.55-0.258 1.029-0.612 1.438-1.063 0.24-0.029 0.469 0.013 0.688 0.125-1.34 1.585-3.027 2.148-5.063 1.688-1.020-0.292-1.854-0.854-2.5-1.688 0.188-0.083 0.376-0.156 0.563-0.219zM19.719 17.219c0.473 2.314 1.879 3.252 4.219 2.813 1.242-0.525 1.94-1.462 2.094-2.813 0.162 0.061 0.329 0.103 0.5 0.125-0.308 2.111-1.527 3.236-3.656 3.375-1.591-0.050-2.716-0.8-3.375-2.25-0.152-0.361-0.246-0.736-0.281-1.125 0.183-0.004 0.35-0.046 0.5-0.125zM15.469 23.156c0.767 0.183 1.538 0.349 2.313 0.5-0.145 2.436-0.281 4.874-0.406 7.313-0.59 0.064-1.184 0.054-1.781-0.031-0.574-0.242-0.845-0.68-0.813-1.313 0.232-2.156 0.461-4.313 0.688-6.469zM30.156 23.156c0.101 0.068 0.153 0.172 0.156 0.313 0.162 1.48 0.329 2.959 0.5 4.438 0.112 0.726 0.154 1.455 0.125 2.188-0.080 0.351-0.278 0.611-0.594 0.781-0.641 0.089-1.287 0.12-1.938 0.094-0.132-2.437-0.257-4.875-0.375-7.313 0.724-0.129 1.433-0.296 2.125-0.5zM1.469 24.906c0.792 0 1.583 0 2.375 0-0.106 2.021-0.211 4.042-0.313 6.063-0.584 0.010-1.167 0-1.75-0.031-0.338-0.109-0.578-0.328-0.719-0.656-0.097-0.412-0.117-0.828-0.063-1.25 0.149-1.377 0.306-2.752 0.469-4.125z"></path>
</svg>
