<!-- Generated by IcoMoon.io -->
<svg version="1.1" xmlns="http://www.w3.org/2000/svg" width="32" height="32" viewBox="0 0 32 32">
<title>investment</title>
<path opacity="0.9" fill="#000" d="M27.969 0.969q1.444-0.044 2.875 0.094 0.056 0.069 0.094 0.156 0.050 1.375 0.031 2.75-0.5 0-1 0 0.012-0.594-0.031-1.188-2.55 2.55-5.094 5.094-0.375 0.188-0.75 0-2.050-2.063-4.125-4.094-2.825 2.781-5.625 5.594-0.375 0.188-0.75 0-1.55-1.563-3.125-3.094-3.294 3.25-6.563 6.531-0.063 0.063-0.125 0-0.331-0.331-0.656-0.656-0.063-0.063 0-0.125 3.519-3.55 7.094-7.031 0.325-0.075 0.625 0.063 1.55 1.563 3.125 3.094 2.825-2.781 5.625-5.594 0.375-0.188 0.75 0 2.050 2.063 4.125 4.094 2.356-2.313 4.688-4.656-0.594-0.044-1.188-0.031 0-0.5 0-1zM23.719 9.469q1.25-0.019 2.5 0.031 0.169 0.050 0.219 0.219 0.063 4 0 8-0.050 0.169-0.219 0.219-1.25 0.063-2.5 0-0.169-0.050-0.219-0.219-0.063-4 0-8 0.063-0.175 0.219-0.25zM24.469 16.969q0.5 0 1 0 0-3.25 0-6.5-0.5 0-1 0 0 3.25 0 6.5zM14.719 10.469q1.25-0.019 2.5 0.031 0.169 0.050 0.219 0.219 0.063 3.5 0 7-0.050 0.169-0.219 0.219-1.25 0.063-2.5 0-0.169-0.050-0.219-0.219-0.063-3.5 0-7 0.063-0.175 0.219-0.25zM15.469 16.969q0.5 0 1 0 0-2.75 0-5.5-0.5 0-1 0 0 2.75 0 5.5zM19.219 11.969q1.25-0.019 2.5 0.031 0.169 0.050 0.219 0.219 0.063 2.75 0 5.5-0.050 0.169-0.219 0.219-1.25 0.063-2.5 0-0.169-0.050-0.219-0.219-0.063-2.75 0-5.5 0.063-0.175 0.219-0.25zM19.969 16.969q0.5 0 1 0 0-2 0-4-0.5 0-1 0 0 2 0 4zM10.219 13.969q1.25-0.019 2.5 0.031 0.088 0.037 0.156 0.094 0.106 0.931 0.094 1.875-0.019 0.875-0.031 1.75-0.037 0.087-0.094 0.156-0.675 0.106-1.375 0.094-0.625-0.019-1.25-0.031-0.088-0.038-0.156-0.094-0.156-1.806-0.063-3.625 0.063-0.175 0.219-0.25zM10.969 16.969q0.5 0 1 0 0-1 0-2-0.5 0-1 0 0 1 0 2zM28.594 18.156q1.656 0.019 2.344 1.5 0.169 0.825-0.313 1.5-5.194 3.525-10.406 7.031-1.738 1.038-3.75 0.75-3.269-0.35-6.531-0.719-0.969 0.119-1.906 0.375-0.037 0.531 0.125 1.063-0.050 0.306-0.313 0.469-2.050 0.444-4.094 0.906-0.331-0.038-0.5-0.313-1.15-5.306-2.25-10.625-0.063-0.313 0-0.625 0.106-0.219 0.344-0.281 1.906-0.406 3.813-0.813 0.4-0.113 0.656 0.219 0.162 0.794 0.406 1.563 2.494-1.606 5.375-0.844 0.444 0.137 0.875 0.313 1.606 0.819 3.188 1.688 0.594 0.313 1.188 0 2.306-1.231 4.688-2.313 1.788-0.344 2.969 1.031 1.631-0.837 3.281-1.656 0.406-0.15 0.813-0.219zM24.906 21.031q-0.069 0.712-0.563 1.219-2.813 1.688-5.625 3.375-1.863 1.119-4 0.75-2.631-0.613-5.25-1.281 0.156-0.494 0.25-1 2.775 0.656 5.563 1.281 1.356 0.144 2.563-0.5 2.831-1.712 5.688-3.375 0.337-0.212 0.219-0.594-0.8-1.244-2.219-0.781-2.063 1.063-4.125 2.125-0.975 0.45-2 0.125-1.75-0.906-3.5-1.813-2.963-1.144-5.469 0.781 0.588 3.069 1.281 6.125 0.063 0.031 0.125 0.063 1.031-0.281 2.094-0.375 3.3 0.344 6.594 0.719 1.325 0.175 2.563-0.313 5.306-3.462 10.563-7 0.4-0.319 0.156-0.781-0.488-0.55-1.219-0.563-1.844 0.875-3.688 1.813zM2.094 20.156q1.031 4.856 2.094 9.688 1.325-0.306 2.656-0.594 0.088-0.038 0.125-0.125-1.044-4.788-2-9.594-0.125 0-0.25 0-1.3 0.313-2.625 0.625zM3.906 20.656q0.188-0.025 0.344 0.063 0.1 0.456 0.219 0.906-0.444 0.144-0.906 0.219-0.125-0.025-0.188-0.125-0.156-0.438-0.094-0.875 0.325-0.094 0.625-0.188z"></path>
</svg>
