<svg width="215" height="52" viewBox="0 0 215 52" fill="none" xmlns="http://www.w3.org/2000/svg">
<g id="Type=Logo, Size=Large">
<g id="Group 437">
<path id="Vector 5" d="M14.8566 39.0977C11.3378 39.8796 3.98746 43.5548 2.73633 51.9999C4.30024 51.9999 12.1198 51.218 14.8566 39.0977Z" fill="#FC394D"/>
<path id="Vector 4" d="M31.6688 21.5038C33.2327 14.9354 37.0121 13.0327 38.7063 12.9023C38.7063 14.2056 38.4718 17.7505 37.5334 21.5038C36.5951 25.2572 31.9294 29.8447 29.7139 31.6693C29.7139 31.0176 30.1048 28.0723 31.6688 21.5038Z" fill="#9B7BF6"/>
<path id="Vector 6" d="M21.1128 14.0751C12.1203 16.8119 4.69173 9.77436 0 4.69165C2.08521 5.47361 7.81955 7.11571 14.0752 7.42849C20.3308 7.74127 24.5013 9.64403 25.8045 10.5563C25.8045 11.3383 26.3472 12.482 21.1128 14.0751Z" fill="#24B183"/>
<g id="Vector">
<path d="M57.5216 0.571866C57.5663 0.929592 57.3126 1.25584 56.9548 1.30055C54.1492 1.65126 47.1797 3.40542 42.5674 5.91558C41.5869 7.84301 39.4106 12.7489 38.5839 16.8824C38.5288 17.1579 38.474 17.4475 38.4168 17.7497L38.4166 17.7508C37.9169 20.391 37.2343 23.998 34.5806 27.6122C31.6776 31.5658 26.4762 35.4633 16.7857 38.3041C16.7211 38.4936 16.6558 38.6793 16.5897 38.8606C14.7379 43.9398 11.6122 48.14 9.57093 49.9427C9.30701 50.1758 8.98284 49.9979 8.84687 49.5455C8.71091 49.093 8.81465 48.5373 9.07857 48.3042C10.8662 46.7256 13.5962 43.1018 15.3557 38.7248C12.7235 39.5735 7.93802 41.6567 4.90801 44.8382C4.65939 45.0993 4.2462 45.1093 3.98514 44.8607C3.72408 44.6121 3.71401 44.1989 3.96263 43.9378C7.56141 40.1591 13.3482 37.8987 15.7926 37.2315C15.8344 37.2197 15.8762 37.2078 15.9178 37.196C16.3807 35.8118 16.8078 34.2135 17.2538 32.5442L17.2542 32.5429C17.3905 32.0329 17.5285 31.5163 17.6699 30.9972C18.3379 28.5444 19.0793 26.0416 20.0366 24.2364C20.2363 23.8598 20.5763 23.832 20.796 24.1744C21.0157 24.5167 21.0319 25.0995 20.8322 25.4761C19.9976 27.0499 19.3152 29.3127 18.6441 31.7769C18.5119 32.262 18.3801 32.7557 18.2477 33.2516C17.9276 34.4503 17.604 35.6619 17.2647 36.797C26.2151 34.0389 30.9225 30.3883 33.5283 26.8395C35.998 23.4759 36.6309 20.1489 37.1331 17.5088C37.1908 17.2055 37.2469 16.9106 37.3037 16.6264C38.1896 12.1969 40.534 6.99704 41.4929 5.15007C41.5496 5.03531 41.6406 4.93601 41.7609 4.86914C46.5514 2.20777 53.8314 0.375296 56.7929 0.00510944C57.1506 -0.0396064 57.4769 0.214139 57.5216 0.571866Z" fill="#333333"/>
<path d="M37.5086 6.96301C37.5086 7.56386 37.0215 8.05094 36.4207 8.05094C35.8198 8.05094 35.3327 7.56386 35.3327 6.96301C35.3327 6.36216 35.8198 5.87507 36.4207 5.87507C37.0215 5.87507 37.5086 6.36216 37.5086 6.96301Z" fill="#333333"/>
<path fill-rule="evenodd" clip-rule="evenodd" d="M36.6099 2.11877C39.0745 2.50951 41.2837 3.87738 42.5078 4.94849C42.7791 5.18589 42.2374 5.22869 42 5.5C41.7626 5.77131 41.9194 6.1684 41.6481 5.931C40.5513 4.9713 38.561 3.74993 36.4055 3.40819C34.3008 3.07451 32.0368 3.57032 30.1997 6.04639C28.9734 7.69927 28.1515 9.26388 27.6654 10.6915C28.1912 11.2963 28.6383 11.9391 29.0165 12.5924C30.5796 15.2923 30.981 18.1836 30.981 19.3655V20.2428L30.1407 19.9907C27.6971 19.2576 26.1136 17.2849 25.8438 14.617C25.7328 13.5191 25.8436 12.3126 26.1961 11.0288C24.739 9.57843 22.697 8.47608 19.8364 8.26677C13.13 7.77606 8.47217 7.1203 5.39711 6.44463C3.86121 6.10715 2.70219 5.76087 1.87336 5.41962C1.72322 5.3578 1.58202 5.29538 1.44993 5.2323C1.52898 5.64859 1.64395 6.15038 1.80341 6.71863C2.34865 8.66168 3.4017 11.3376 5.26802 13.9848C8.97639 19.2449 15.9396 24.4627 28.7563 23.5015C29.1158 23.4745 29.4291 23.7441 29.4561 24.1036C29.483 24.4631 29.2134 24.7764 28.8539 24.8033C15.5601 25.8004 8.16259 20.3563 4.20101 14.7371C2.23235 11.9447 1.12313 9.12647 0.546434 7.07135C0.258327 6.04464 0.100022 5.19731 0.0354646 4.62774C0.00451819 4.35471 -0.00972528 4.10581 0.00723945 3.9252C0.0117021 3.87769 0.0201471 3.81315 0.0392271 3.7445C0.0509468 3.70232 0.0971613 3.53601 0.248269 3.3998C0.340651 3.31652 0.480635 3.23799 0.659882 3.22803C0.832338 3.21845 0.968069 3.27648 1.05224 3.32867C1.19785 3.41897 1.27298 3.5424 1.29608 3.58092C1.30609 3.5976 1.36666 3.6774 1.55706 3.80297C1.73943 3.92324 2.00439 4.06171 2.37041 4.21242C3.10224 4.51373 4.18045 4.84063 5.67728 5.16952C8.66769 5.82659 13.2573 6.47636 19.9317 6.96472C22.8556 7.17867 25.0377 8.24001 26.6508 9.66676C27.201 8.26231 28.0268 6.78407 29.1512 5.2685C31.3178 2.3484 34.0945 1.71996 36.6099 2.11877ZM1.30704 4.04729C1.30734 4.04494 1.30726 4.04499 1.30704 4.04729V4.04729ZM0.183002 4.26315C0.179854 4.25818 0.17701 4.25329 0.17701 4.25329C0.179125 4.25682 0.180854 4.25964 0.183002 4.26315ZM27.2512 12.2664C27.1055 13.0675 27.0745 13.8109 27.1427 14.4857C27.3251 16.2892 28.2135 17.635 29.6009 18.3679C29.4362 17.0862 28.9668 15.1122 27.8866 13.2465C27.6945 12.9146 27.4833 12.5865 27.2512 12.2664Z" fill="#333333"/>
<path d="M56.9548 1.30055L56.9066 0.914661V0.914661L56.9548 1.30055ZM57.5216 0.571866L57.9075 0.523631V0.523625L57.5216 0.571866ZM42.5674 5.91558L42.3815 5.57399L42.2754 5.63168L42.2207 5.73925L42.5674 5.91558ZM38.5839 16.8824L38.9652 16.9587L38.5839 16.8824ZM38.4168 17.7497L38.7987 17.823L38.7989 17.822L38.4168 17.7497ZM38.4166 17.7508L38.0346 17.6775L38.0345 17.6785L38.4166 17.7508ZM34.5806 27.6122L34.2671 27.382H34.2671L34.5806 27.6122ZM16.7857 38.3041L16.6763 37.9309L16.4827 37.9877L16.4176 38.1786L16.7857 38.3041ZM16.5897 38.8606L16.9551 38.9938V38.9938L16.5897 38.8606ZM9.57093 49.9427L9.31351 49.6512H9.31351L9.57093 49.9427ZM8.84687 49.5455L8.47443 49.6574H8.47443L8.84687 49.5455ZM9.07857 48.3042L9.336 48.5957H9.336L9.07857 48.3042ZM15.3557 38.7248L15.7165 38.8698L16.0259 38.1L15.2363 38.3546L15.3557 38.7248ZM4.90801 44.8382L5.18963 45.1064H5.18963L4.90801 44.8382ZM3.98514 44.8607L4.25335 44.5791H4.25335L3.98514 44.8607ZM3.96263 43.9378L3.68102 43.6696L3.68102 43.6696L3.96263 43.9378ZM15.7926 37.2315L15.895 37.6067L15.8984 37.6057L15.7926 37.2315ZM15.9178 37.196L16.0243 37.57L16.2216 37.5138L16.2867 37.3193L15.9178 37.196ZM17.2538 32.5442L16.8782 32.4436L16.8781 32.4438L17.2538 32.5442ZM17.2542 32.5429L17.6298 32.6435L17.6299 32.6433L17.2542 32.5429ZM17.6699 30.9972L18.0451 31.0994L17.6699 30.9972ZM20.0366 24.2364L20.3802 24.4185L20.0366 24.2364ZM20.796 24.1744L21.1233 23.9643V23.9643L20.796 24.1744ZM20.8322 25.4761L20.4886 25.2939L20.4886 25.2939L20.8322 25.4761ZM18.6441 31.7769L18.2688 31.6747V31.6747L18.6441 31.7769ZM18.2477 33.2516L18.6234 33.352L18.2477 33.2516ZM17.2647 36.797L16.8921 36.6856L16.6835 37.383L17.3792 37.1686L17.2647 36.797ZM33.5283 26.8395L33.8417 27.0696L33.5283 26.8395ZM37.1331 17.5088L37.5151 17.5815V17.5815L37.1331 17.5088ZM37.3037 16.6264L36.9224 16.5501V16.5501L37.3037 16.6264ZM41.4929 5.15007L41.8381 5.32931L41.8416 5.32233L41.4929 5.15007ZM41.7609 4.86914L41.9498 5.20909L41.9498 5.20909L41.7609 4.86914ZM56.7929 0.00510944L56.8412 0.391001V0.391001L56.7929 0.00510944ZM42.5078 4.94849L42.2517 5.24117V5.24117L42.5078 4.94849ZM36.6099 2.11877L36.549 2.50286L36.6099 2.11877ZM42 5.5L42.2927 5.75609L42.2927 5.75609L42 5.5ZM41.6481 5.931L41.9042 5.63833V5.63833L41.6481 5.931ZM36.4055 3.40819L36.3446 3.79228L36.4055 3.40819ZM30.1997 6.04639L29.8874 5.81467V5.81467L30.1997 6.04639ZM27.6654 10.6915L27.2973 10.5661L27.2252 10.7779L27.3719 10.9466L27.6654 10.6915ZM29.0165 12.5924L29.353 12.3975L29.0165 12.5924ZM30.981 20.2428L30.8692 20.6153L31.3699 20.7655V20.2428H30.981ZM30.1407 19.9907L30.0289 20.3632L30.1407 19.9907ZM25.8438 14.617L26.2307 14.5779L25.8438 14.617ZM26.1961 11.0288L26.5711 11.1318L26.6312 10.9132L26.4705 10.7532L26.1961 11.0288ZM19.8364 8.26677L19.808 8.65462L19.8364 8.26677ZM5.39711 6.44463L5.48057 6.06479L5.39711 6.44463ZM1.87336 5.41962L1.7253 5.77922L1.7253 5.77922L1.87336 5.41962ZM1.44993 5.2323L1.61753 4.88137L0.924609 4.55044L1.06787 5.30485L1.44993 5.2323ZM1.80341 6.71863L1.42897 6.8237L1.80341 6.71863ZM5.26802 13.9848L5.58587 13.7607L5.26802 13.9848ZM28.7563 23.5015L28.7854 23.8893L28.7563 23.5015ZM28.8539 24.8033L28.883 25.1911L28.8539 24.8033ZM4.20101 14.7371L4.51885 14.513L4.20101 14.7371ZM0.546434 7.07135L0.172002 7.17642L0.546434 7.07135ZM0.0354646 4.62774L0.421885 4.58394L0.0354646 4.62774ZM0.00723945 3.9252L-0.379951 3.88883H-0.379951L0.00723945 3.9252ZM0.0392271 3.7445L0.413919 3.84864L0.413924 3.84862L0.0392271 3.7445ZM0.248269 3.3998L-0.0121167 3.11094H-0.0121167L0.248269 3.3998ZM0.659882 3.22803L0.681452 3.61632L0.659882 3.22803ZM1.05224 3.32867L1.2572 2.99817V2.99817L1.05224 3.32867ZM1.29608 3.58092L0.96261 3.781L0.96261 3.781L1.29608 3.58092ZM1.55706 3.80297L1.77116 3.47832L1.77116 3.47832L1.55706 3.80297ZM2.37041 4.21242L2.22235 4.57202H2.22235L2.37041 4.21242ZM5.67728 5.16952L5.76074 4.78969L5.67728 5.16952ZM19.9317 6.96472L19.9601 6.57687L19.9317 6.96472ZM26.6508 9.66676L26.3932 9.95806L26.81 10.3267L27.0129 9.80861L26.6508 9.66676ZM29.1512 5.2685L29.4636 5.50022V5.50022L29.1512 5.2685ZM1.30704 4.04729L0.919852 4.01092L1.69293 4.09555L1.30704 4.04729ZM0.183002 4.26315L-0.145515 4.47128L0.514617 4.06L0.183002 4.26315ZM0.17701 4.25329L0.510485 4.05321L-0.159163 4.44881L0.17701 4.25329ZM27.1427 14.4857L26.7558 14.5248L27.1427 14.4857ZM27.2512 12.2664L27.5661 12.0381L27.0316 11.301L26.8686 12.1968L27.2512 12.2664ZM29.6009 18.3679L29.4192 18.7118L30.0822 19.062L29.9866 18.3183L29.6009 18.3679ZM27.8866 13.2465L27.5501 13.4413L27.8866 13.2465ZM57.0031 1.68644C57.5739 1.61509 57.9789 1.09448 57.9075 0.523631L57.1357 0.6201C57.1538 0.764706 57.0512 0.896585 56.9066 0.914661L57.0031 1.68644ZM42.7533 6.25716C47.3135 3.77538 54.2338 2.03261 57.0031 1.68644L56.9066 0.914661C54.0646 1.26991 47.046 3.03546 42.3815 5.57399L42.7533 6.25716ZM38.9652 16.9587C39.7817 12.876 41.9399 8.00683 42.914 6.0919L42.2207 5.73925C41.2339 7.67919 39.0394 12.6217 38.2025 16.8062L38.9652 16.9587ZM38.7989 17.822C38.8562 17.5194 38.9106 17.2318 38.9652 16.9587L38.2025 16.8062C38.147 17.084 38.0918 17.3756 38.0347 17.6774L38.7989 17.822ZM38.7985 17.824L38.7987 17.823L38.0349 17.6764L38.0346 17.6775L38.7985 17.824ZM34.894 27.8423C37.6042 24.1513 38.2984 20.4666 38.7987 17.8231L38.0345 17.6785C37.5355 20.3153 36.8645 23.8446 34.2671 27.382L34.894 27.8423ZM16.8951 38.6773C26.6417 35.82 31.9267 31.8836 34.894 27.8423L34.2671 27.382C31.4284 31.248 26.3107 35.1065 16.6763 37.9309L16.8951 38.6773ZM16.4176 38.1786C16.3538 38.3658 16.2894 38.5489 16.2244 38.7274L16.9551 38.9938C17.0222 38.8097 17.0884 38.6214 17.1538 38.4296L16.4176 38.1786ZM16.2244 38.7274C14.3924 43.7521 11.3012 47.8958 9.31351 49.6512L9.82836 50.2342C11.9231 48.3843 15.0834 44.1276 16.9551 38.9938L16.2244 38.7274ZM9.31351 49.6512C9.2962 49.6665 9.2965 49.6594 9.31553 49.6569C9.33555 49.6543 9.34848 49.6605 9.34796 49.6602C9.34489 49.6585 9.32558 49.6464 9.29889 49.6082C9.27257 49.5706 9.24334 49.5135 9.21931 49.4336L8.47443 49.6574C8.55954 49.9406 8.72199 50.2039 8.97387 50.3421C9.25866 50.4983 9.58225 50.4515 9.82836 50.2342L9.31351 49.6512ZM9.21932 49.4336C9.17063 49.2716 9.16356 49.0827 9.19506 48.914C9.22803 48.7373 9.29265 48.634 9.336 48.5957L8.82115 48.0127C8.60057 48.2075 8.48136 48.4986 8.43047 48.7712C8.37811 49.0517 8.38715 49.367 8.47443 49.6574L9.21932 49.4336ZM9.336 48.5957C11.1752 46.9715 13.9378 43.2948 15.7165 38.8698L14.9948 38.5797C13.2547 42.9088 10.5571 46.4797 8.82115 48.0127L9.336 48.5957ZM5.18963 45.1064C8.15339 41.9945 12.8659 39.9362 15.475 39.0949L15.2363 38.3546C12.5811 39.2108 7.72265 41.3189 4.6264 44.57L5.18963 45.1064ZM3.71694 45.1423C4.13353 45.5391 4.79287 45.523 5.18963 45.1064L4.6264 44.57C4.5259 44.6755 4.35887 44.6796 4.25335 44.5791L3.71694 45.1423ZM3.68102 43.6696C3.28427 44.0862 3.30035 44.7456 3.71694 45.1423L4.25335 44.5791C4.14782 44.4786 4.14374 44.3116 4.24425 44.206L3.68102 43.6696ZM15.6902 36.8563C13.2166 37.5315 7.35062 39.8166 3.68102 43.6696L4.24425 44.206C7.7722 40.5017 13.4798 38.2659 15.895 37.6067L15.6902 36.8563ZM15.8114 36.8219C15.7699 36.8337 15.7284 36.8455 15.6868 36.8573L15.8984 37.6057C15.9404 37.5938 15.9824 37.5819 16.0243 37.57L15.8114 36.8219ZM16.2867 37.3193C16.754 35.9215 17.1843 34.3107 17.6295 32.6446L16.8781 32.4438C16.4312 34.1162 16.0073 35.702 15.549 37.0726L16.2867 37.3193ZM17.6295 32.6449L17.6298 32.6435L16.8785 32.4422L16.8782 32.4436L17.6295 32.6449ZM17.6299 32.6433C17.7662 32.1332 17.904 31.6175 18.0451 31.0994L17.2947 30.895C17.153 31.4152 17.0147 31.9326 16.8785 32.4425L17.6299 32.6433ZM18.0451 31.0994C18.7145 28.6413 19.4462 26.1798 20.3802 24.4185L19.6931 24.0542C18.7124 25.9034 17.9612 28.4475 17.2947 30.895L18.0451 31.0994ZM20.3802 24.4185C20.4103 24.3618 20.437 24.3349 20.4501 24.3245C20.4619 24.3151 20.4587 24.3219 20.4405 24.3234C20.4211 24.3249 20.41 24.3185 20.4122 24.3198C20.4168 24.3226 20.439 24.338 20.4687 24.3844L21.1233 23.9643C20.9646 23.7169 20.7041 23.5215 20.3772 23.5481C20.0602 23.574 19.8289 23.798 19.6931 24.0542L20.3802 24.4185ZM20.4687 24.3844C20.5306 24.4808 20.5775 24.6379 20.5826 24.8232C20.5877 25.0074 20.5503 25.1775 20.4886 25.2939L21.1757 25.6583C21.3137 25.3982 21.3681 25.0886 21.3601 24.8016C21.3522 24.5158 21.2811 24.2103 21.1233 23.9643L20.4687 24.3844ZM20.4886 25.2939C19.6307 26.9118 18.9385 29.216 18.2688 31.6747L19.0193 31.8791C19.6919 29.4094 20.3646 27.188 21.1757 25.6583L20.4886 25.2939ZM18.2688 31.6747C18.1364 32.1609 18.0043 32.6556 17.872 33.1513L18.6234 33.352C18.7559 32.8559 18.8875 32.3632 19.0193 31.8791L18.2688 31.6747ZM17.872 33.1513C17.5516 34.3511 17.2295 35.557 16.8921 36.6856L17.6372 36.9084C17.9786 35.7668 18.3036 34.5495 18.6234 33.352L17.872 33.1513ZM33.2148 26.6093C30.6713 30.0733 26.0444 33.6846 17.1501 36.4253L17.3792 37.1686C26.3857 34.3933 31.1737 30.7033 33.8417 27.0696L33.2148 26.6093ZM36.751 17.4362C36.2493 20.0739 35.628 23.3227 33.2148 26.6093L33.8417 27.0696C36.368 23.6291 37.0124 20.224 37.5151 17.5815L36.751 17.4362ZM36.9224 16.5501C36.8651 16.8364 36.8086 17.1332 36.751 17.4362L37.5151 17.5815C37.5729 17.2779 37.6286 16.9847 37.685 16.7027L36.9224 16.5501ZM41.1478 4.97087C40.1815 6.83185 37.8186 12.0689 36.9224 16.5501L37.685 16.7027C38.5606 12.3249 40.8864 7.16223 41.8381 5.32928L41.1478 4.97087ZM41.5721 4.52918C41.3804 4.63564 41.2348 4.7945 41.1442 4.97782L41.8416 5.32233C41.8644 5.27612 41.9007 5.23638 41.9498 5.20909L41.5721 4.52918ZM56.7447 -0.380782C53.7473 -0.00610352 46.4165 1.83784 41.5721 4.52918L41.9498 5.20909C46.6863 2.5777 53.9156 0.756695 56.8412 0.391001L56.7447 -0.380782ZM57.9075 0.523625C57.8361 -0.0472148 57.3155 -0.452139 56.7447 -0.380782L56.8412 0.391001C56.9858 0.372926 57.1176 0.475493 57.1357 0.620107L57.9075 0.523625ZM37.1197 6.96301C37.1197 7.34908 36.8067 7.66205 36.4207 7.66205V8.43984C37.2363 8.43984 37.8975 7.77864 37.8975 6.96301H37.1197ZM36.4207 7.66205C36.0346 7.66205 35.7216 7.34908 35.7216 6.96301H34.9438C34.9438 7.77864 35.605 8.43984 36.4207 8.43984V7.66205ZM35.7216 6.96301C35.7216 6.57694 36.0346 6.26396 36.4207 6.26396V5.48618C35.605 5.48618 34.9438 6.14738 34.9438 6.96301H35.7216ZM36.4207 6.26396C36.8067 6.26396 37.1197 6.57694 37.1197 6.96301H37.8975C37.8975 6.14738 37.2363 5.48618 36.4207 5.48618V6.26396ZM42.7639 4.65582C41.5019 3.55154 39.2275 2.14002 36.6708 1.73467L36.549 2.50286C38.9215 2.87901 41.0655 4.20323 42.2517 5.24117L42.7639 4.65582ZM42.2927 5.75609C42.3101 5.7362 42.3449 5.70808 42.4112 5.67004C42.443 5.65182 42.4765 5.6343 42.5151 5.61436C42.5507 5.59595 42.5954 5.57307 42.6363 5.54993C42.6764 5.52725 42.7286 5.49557 42.7778 5.45467C42.8246 5.41571 42.8963 5.34589 42.9383 5.23875C42.9868 5.11532 42.9791 4.98579 42.9299 4.87328C42.887 4.7753 42.8192 4.70419 42.7639 4.65582L42.2517 5.24117C42.2643 5.25215 42.2389 5.23431 42.2174 5.18517C42.1895 5.1215 42.1822 5.03638 42.2143 4.95458C42.24 4.88908 42.2787 4.85812 42.2801 4.85689C42.2839 4.85373 42.2786 4.85867 42.253 4.87312C42.2283 4.88713 42.1995 4.90193 42.158 4.92338C42.1195 4.94329 42.0722 4.96781 42.0241 4.99546C41.9305 5.04917 41.8086 5.12814 41.7073 5.24391L42.2927 5.75609ZM41.392 6.22367C41.4348 6.26113 41.4901 6.30514 41.5542 6.33796C41.6136 6.36834 41.7415 6.42041 41.8951 6.3747C42.0564 6.3267 42.1334 6.20538 42.1638 6.14458C42.1939 6.08462 42.2084 6.02456 42.2153 5.99544C42.2521 5.83944 42.2544 5.79979 42.2927 5.75609L41.7073 5.24391C41.5082 5.47152 41.4703 5.76607 41.4582 5.8171C41.4529 5.83973 41.4548 5.82348 41.4683 5.79641C41.4823 5.76849 41.5391 5.66914 41.6733 5.62922C41.7997 5.5916 41.8935 5.63787 41.9086 5.64558C41.9284 5.65573 41.9292 5.66022 41.9042 5.63833L41.392 6.22367ZM36.3446 3.79228C38.4081 4.11943 40.3332 5.29717 41.392 6.22367L41.9042 5.63833C40.7694 4.64542 38.714 3.38043 36.4664 3.02409L36.3446 3.79228ZM30.512 6.27811C31.3905 5.09401 32.3567 4.40118 33.3372 4.03836C34.3203 3.67459 35.3428 3.63346 36.3446 3.79228L36.4664 3.02409C35.3635 2.84923 34.2017 2.88917 33.0673 3.3089C31.9304 3.72958 30.8459 4.52269 29.8874 5.81467L30.512 6.27811ZM28.0336 10.8168C28.5047 9.43321 29.3057 7.904 30.512 6.27811L29.8874 5.81467C28.641 7.49454 27.7983 9.09455 27.2973 10.5661L28.0336 10.8168ZM29.353 12.3975C28.9637 11.7251 28.5026 11.0617 27.9589 10.4363L27.3719 10.9466C27.8799 11.5309 28.3128 12.1531 28.6799 12.7872L29.353 12.3975ZM31.3699 19.3655C31.3699 18.1276 30.9562 15.1666 29.353 12.3975L28.6799 12.7872C30.203 15.418 30.5921 18.2395 30.5921 19.3655H31.3699ZM31.3699 20.2428V19.3655H30.5921V20.2428H31.3699ZM30.0289 20.3632L30.8692 20.6153L31.0927 19.8703L30.2524 19.6182L30.0289 20.3632ZM25.4569 14.6561C25.7415 17.4711 27.4257 19.5822 30.0289 20.3632L30.2524 19.6182C27.9685 18.933 26.4856 17.0986 26.2307 14.5779L25.4569 14.6561ZM25.8211 10.9259C25.4578 12.2492 25.3404 13.5041 25.4569 14.6561L26.2307 14.5779C26.1252 13.5341 26.2295 12.3761 26.5711 11.1318L25.8211 10.9259ZM19.808 8.65462C22.5742 8.85703 24.5293 9.91848 25.9218 11.3045L26.4705 10.7532C24.9486 9.23837 22.8198 8.09513 19.8648 7.87891L19.808 8.65462ZM5.31365 6.82446C8.41393 7.50567 13.0921 8.16322 19.808 8.65462L19.8648 7.87891C13.1679 7.3889 8.53041 6.73492 5.48057 6.06479L5.31365 6.82446ZM1.7253 5.77922C2.58302 6.13238 3.76611 6.48443 5.31365 6.82446L5.48057 6.06479C3.95631 5.72988 2.82136 5.38937 2.02143 5.06001L1.7253 5.77922ZM1.28233 5.58322C1.42159 5.64973 1.56938 5.71502 1.7253 5.77922L2.02143 5.06001C1.87707 5.00058 1.74245 4.94103 1.61753 4.88137L1.28233 5.58322ZM2.17784 6.61356C2.02128 6.05564 1.9089 5.5647 1.832 5.15974L1.06787 5.30485C1.14907 5.73248 1.26662 6.24512 1.42897 6.8237L2.17784 6.61356ZM5.58587 13.7607C3.75002 11.1567 2.71371 8.52322 2.17784 6.61356L1.42897 6.8237C1.98359 8.80013 3.05337 11.5184 4.95017 14.2089L5.58587 13.7607ZM28.7272 23.1136C16.0527 24.0642 9.2188 18.9138 5.58587 13.7607L4.95017 14.2089C8.73398 19.576 15.8266 24.8612 28.7854 23.8893L28.7272 23.1136ZM29.8439 24.0745C29.8008 23.5008 29.3009 23.0706 28.7272 23.1136L28.7854 23.8893C28.9307 23.8784 29.0573 23.9873 29.0682 24.1327L29.8439 24.0745ZM28.883 25.1911C29.4567 25.1481 29.8869 24.6482 29.8439 24.0745L29.0682 24.1327C29.0791 24.278 28.9702 24.4046 28.8249 24.4155L28.883 25.1911ZM3.88316 14.9612C7.92017 20.6874 15.4471 26.1988 28.883 25.1911L28.8249 24.4155C15.6732 25.4019 8.40502 20.0253 4.51885 14.513L3.88316 14.9612ZM0.172002 7.17642C0.758061 9.26492 1.88403 12.1255 3.88316 14.9612L4.51885 14.513C2.58068 11.7638 1.48819 8.98802 0.920866 6.96628L0.172002 7.17642ZM-0.350956 4.67154C-0.283636 5.26548 -0.120647 6.13352 0.172002 7.17642L0.920866 6.96628C0.6373 5.95575 0.48368 5.12914 0.421885 4.58394L-0.350956 4.67154ZM-0.379951 3.88883C-0.400839 4.11121 -0.382518 4.39307 -0.350956 4.67154L0.421885 4.58394C0.391555 4.31635 0.381389 4.1004 0.39443 3.96157L-0.379951 3.88883ZM-0.335465 3.64036C-0.363071 3.73969 -0.374358 3.82929 -0.379951 3.88883L0.39443 3.96157C0.397762 3.92609 0.403365 3.88661 0.413919 3.84864L-0.335465 3.64036ZM-0.0121167 3.11094C-0.248809 3.32431 -0.319137 3.5816 -0.33547 3.64038L0.413924 3.84862C0.421031 3.82305 0.443131 3.74772 0.508655 3.68866L-0.0121167 3.11094ZM0.638311 2.83973C0.35395 2.85553 0.132775 2.98033 -0.0121167 3.11094L0.508655 3.68866C0.548526 3.65272 0.607319 3.62044 0.681452 3.61632L0.638311 2.83973ZM1.2572 2.99817C1.12597 2.91679 0.911729 2.82454 0.638311 2.83973L0.681452 3.61632C0.752946 3.61235 0.81017 3.63616 0.847281 3.65918L1.2572 2.99817ZM1.62956 3.38083C1.59804 3.32829 1.48385 3.13873 1.2572 2.99817L0.847281 3.65918C0.911853 3.69922 0.947918 3.75652 0.96261 3.781L1.62956 3.38083ZM1.77116 3.47832C1.69145 3.42574 1.6467 3.38786 1.6251 3.36758C1.61431 3.35745 1.60993 3.35231 1.61013 3.35255C1.61023 3.35266 1.61187 3.35459 1.61467 3.35835C1.6169 3.36136 1.62252 3.3691 1.62956 3.38083L0.96261 3.781C1.01536 3.86892 1.13013 3.98726 1.34296 4.12762L1.77116 3.47832ZM2.51847 3.85281C2.16681 3.70802 1.92607 3.58047 1.77116 3.47832L1.34296 4.12762C1.55279 4.266 1.84196 4.4154 2.22235 4.57202L2.51847 3.85281ZM5.76074 4.78969C4.27553 4.46335 3.2214 4.14223 2.51847 3.85281L2.22235 4.57202C2.98307 4.88524 4.08536 5.21791 5.59382 5.54936L5.76074 4.78969ZM19.9601 6.57687C13.2952 6.0892 8.72593 5.44122 5.76074 4.78969L5.59382 5.54936C8.60945 6.21197 13.2194 6.86352 19.9033 7.35258L19.9601 6.57687ZM26.9085 9.37546C25.2321 7.89279 22.9697 6.79709 19.9601 6.57687L19.9033 7.35258C22.7416 7.56026 24.8432 8.58722 26.3932 9.95806L26.9085 9.37546ZM28.8389 5.03677C27.6969 6.57597 26.8531 8.0841 26.2887 9.52491L27.0129 9.80861C27.5489 8.44052 28.3566 6.99217 29.4636 5.50022L28.8389 5.03677ZM36.6708 1.73467C34.0332 1.3165 31.1037 1.98425 28.8389 5.03678L29.4636 5.50022C31.5318 2.71255 34.1557 2.12342 36.549 2.50286L36.6708 1.73467ZM1.69423 4.08366C1.69411 4.08491 1.6939 4.08706 1.69359 4.08986C1.69346 4.09098 1.69313 4.09383 1.69264 4.09752C1.69246 4.09881 1.69183 4.10355 1.69081 4.10961C1.69046 4.1117 1.68908 4.12006 1.6867 4.13064C1.6858 4.13465 1.68267 4.1486 1.67701 4.16599C1.67451 4.17365 1.66787 4.19352 1.65606 4.21747C1.65018 4.22941 1.63885 4.25096 1.62088 4.27548C1.60618 4.29552 1.56716 4.34553 1.49792 4.38449C1.414 4.4317 1.28698 4.45932 1.15553 4.40363C1.047 4.35765 0.993122 4.27794 0.973668 4.24548C0.935167 4.18124 0.925781 4.12154 0.924623 4.11517C0.918815 4.08325 0.918511 4.05746 0.918444 4.05456C0.918108 4.04006 0.918704 4.02864 0.918789 4.02687C0.919129 4.01982 0.919596 4.01432 0.919698 4.01311C0.920028 4.00918 0.920345 4.00616 0.920458 4.00508C0.920755 4.00227 0.921012 4.00016 0.921154 3.99903L1.69293 4.09555C1.69322 4.09325 1.69358 4.09026 1.69393 4.08687C1.69408 4.08551 1.69442 4.08227 1.69476 4.07819C1.69487 4.07691 1.69534 4.07136 1.69568 4.06427C1.69576 4.06248 1.69636 4.05105 1.69602 4.03655C1.69596 4.03364 1.69565 4.00784 1.68985 3.97592C1.68869 3.96956 1.6793 3.90985 1.6408 3.84561C1.62135 3.81316 1.56747 3.73344 1.45894 3.68746C1.32748 3.63177 1.20047 3.6594 1.11655 3.70661C1.04731 3.74556 1.00828 3.79558 0.99359 3.81562C0.975616 3.84014 0.964289 3.86168 0.958404 3.87362C0.946598 3.89758 0.939955 3.91744 0.937457 3.92511C0.931794 3.9425 0.92866 3.95645 0.927757 3.96047C0.925384 3.97106 0.923992 3.97943 0.92364 3.98154C0.922623 3.98764 0.921977 3.99243 0.921793 3.9938C0.921277 3.99764 0.920923 4.00071 0.920762 4.00212C0.920379 4.0055 0.920078 4.00851 0.919852 4.01092L1.69423 4.08366ZM0.51152 4.05503C0.511962 4.05573 0.512226 4.05616 0.512302 4.05628C0.512392 4.05643 0.512431 4.05649 0.512433 4.0565C0.512442 4.05651 0.51248 4.05658 0.512576 4.05674C0.512627 4.05682 0.5127 4.05695 0.512798 4.05712C0.512847 4.0572 0.512903 4.0573 0.512967 4.05741C0.512999 4.05746 0.513033 4.05752 0.513069 4.05758C0.513087 4.05761 0.513106 4.05764 0.513125 4.05768C0.513134 4.05769 0.513144 4.05771 0.513154 4.05773C0.513158 4.05773 0.513163 4.05774 0.513168 4.05775C0.513171 4.05775 0.513175 4.05776 0.513176 4.05776C0.513179 4.05777 0.513183 4.05778 0.17701 4.25329C-0.159163 4.44881 -0.159159 4.44882 -0.159155 4.44882C-0.159154 4.44882 -0.15915 4.44883 -0.159148 4.44884C-0.159143 4.44884 -0.159137 4.44885 -0.159132 4.44886C-0.159122 4.44888 -0.159111 4.4489 -0.1591 4.44892C-0.159078 4.44895 -0.159056 4.44899 -0.159032 4.44903C-0.158985 4.44911 -0.158935 4.4492 -0.158881 4.44929C-0.158774 4.44948 -0.158654 4.44968 -0.158521 4.44991C-0.158255 4.45036 -0.157935 4.45091 -0.157569 4.45153C-0.156841 4.45277 -0.155895 4.45436 -0.154782 4.45622C-0.152697 4.4597 -0.149409 4.46513 -0.145515 4.47128L0.51152 4.05503ZM-0.156464 4.45338C-0.153367 4.45854 -0.150848 4.46266 -0.148613 4.4663L0.514617 4.06C0.512555 4.05663 0.511618 4.0551 0.510485 4.05321L-0.156464 4.45338ZM27.5296 14.4465C27.4654 13.8119 27.4939 13.1052 27.6338 12.336L26.8686 12.1968C26.7171 13.0298 26.6835 13.81 26.7558 14.5248L27.5296 14.4465ZM29.7825 18.0241C28.5221 17.3582 27.7003 16.1345 27.5296 14.4465L26.7558 14.5248C26.9498 16.4439 27.9048 17.9117 29.4192 18.7118L29.7825 18.0241ZM27.5501 13.4413C28.5975 15.2506 29.055 17.1715 29.2152 18.4175L29.9866 18.3183C29.8173 17.001 29.3361 14.9739 28.2232 13.0516L27.5501 13.4413ZM26.9364 12.4947C27.1601 12.8033 27.3641 13.1202 27.5501 13.4413L28.2232 13.0516C28.0249 12.7091 27.8065 12.3697 27.5661 12.0381L26.9364 12.4947Z" fill="#333333"/>
</g>
</g>
<path id="hmmngbrd" d="M57.9562 20.062C59.0016 20.062 59.9308 20.286 60.7438 20.734C61.5735 21.182 62.2206 21.8457 62.6852 22.7252C63.1664 23.6046 63.407 24.6665 63.407 25.911V34H60.5945V26.3341C60.5945 25.1062 60.2875 24.1687 59.6736 23.5216C59.0596 22.8579 58.2217 22.5261 57.1598 22.5261C56.0978 22.5261 55.2516 22.8579 54.6211 23.5216C54.0071 24.1687 53.7002 25.1062 53.7002 26.3341V34H50.8628V15.582H53.7002V21.8789C54.1814 21.2982 54.787 20.8502 55.5171 20.5349C56.2638 20.2196 57.0768 20.062 57.9562 20.062ZM86.6274 20.062C87.7059 20.062 88.6683 20.286 89.5145 20.734C90.3773 21.182 91.0493 21.8457 91.5305 22.7252C92.0283 23.6046 92.2772 24.6665 92.2772 25.911V34H89.4647V26.3341C89.4647 25.1062 89.1578 24.1687 88.5438 23.5216C87.9299 22.8579 87.092 22.5261 86.03 22.5261C84.9681 22.5261 84.1218 22.8579 83.4913 23.5216C82.8774 24.1687 82.5704 25.1062 82.5704 26.3341V34H79.7579V26.3341C79.7579 25.1062 79.451 24.1687 78.837 23.5216C78.2231 22.8579 77.3851 22.5261 76.3232 22.5261C75.2613 22.5261 74.415 22.8579 73.7845 23.5216C73.1706 24.1687 72.8636 25.1062 72.8636 26.3341V34H70.0262V20.286H72.8636V21.854C73.3282 21.2899 73.9172 20.8502 74.6307 20.5349C75.3442 20.2196 76.1075 20.062 76.9205 20.062C78.0157 20.062 78.9946 20.2943 79.8575 20.7589C80.7203 21.2235 81.384 21.8955 81.8486 22.7749C82.2634 21.9453 82.9106 21.2899 83.79 20.8087C84.6694 20.3109 85.6152 20.062 86.6274 20.062ZM115.489 20.062C116.567 20.062 117.53 20.286 118.376 20.734C119.239 21.182 119.911 21.8457 120.392 22.7252C120.89 23.6046 121.139 24.6665 121.139 25.911V34H118.326V26.3341C118.326 25.1062 118.019 24.1687 117.405 23.5216C116.791 22.8579 115.953 22.5261 114.892 22.5261C113.83 22.5261 112.983 22.8579 112.353 23.5216C111.739 24.1687 111.432 25.1062 111.432 26.3341V34H108.619V26.3341C108.619 25.1062 108.312 24.1687 107.699 23.5216C107.085 22.8579 106.247 22.5261 105.185 22.5261C104.123 22.5261 103.277 22.8579 102.646 23.5216C102.032 24.1687 101.725 25.1062 101.725 26.3341V34H98.8877V20.286H101.725V21.854C102.19 21.2899 102.779 20.8502 103.492 20.5349C104.206 20.2196 104.969 20.062 105.782 20.062C106.877 20.062 107.856 20.2943 108.719 20.7589C109.582 21.2235 110.246 21.8955 110.71 22.7749C111.125 21.9453 111.772 21.2899 112.651 20.8087C113.531 20.3109 114.477 20.062 115.489 20.062ZM134.668 20.062C135.747 20.062 136.709 20.286 137.556 20.734C138.418 21.182 139.09 21.8457 139.572 22.7252C140.053 23.6046 140.293 24.6665 140.293 25.911V34H137.481V26.3341C137.481 25.1062 137.174 24.1687 136.56 23.5216C135.946 22.8579 135.108 22.5261 134.046 22.5261C132.984 22.5261 132.138 22.8579 131.507 23.5216C130.894 24.1687 130.587 25.1062 130.587 26.3341V34H127.749V20.286H130.587V21.854C131.051 21.2899 131.64 20.8502 132.354 20.5349C133.084 20.2196 133.855 20.062 134.668 20.062ZM152.438 20.062C153.5 20.062 154.437 20.2777 155.251 20.7091C156.08 21.124 156.727 21.6466 157.192 22.2772V20.286H160.054V34.224C160.054 35.4851 159.789 36.6051 159.258 37.5841C158.727 38.5796 157.955 39.3595 156.943 39.9236C155.947 40.4878 154.753 40.7699 153.359 40.7699C151.501 40.7699 149.957 40.3302 148.73 39.4507C147.502 38.5879 146.805 37.4098 146.639 35.9165H149.451C149.667 36.63 150.123 37.2024 150.82 37.6338C151.534 38.0818 152.38 38.3058 153.359 38.3058C154.504 38.3058 155.425 37.9574 156.122 37.2605C156.835 36.5636 157.192 35.5514 157.192 34.224V31.9342C156.711 32.5813 156.055 33.1289 155.226 33.5769C154.413 34.0083 153.483 34.224 152.438 34.224C151.243 34.224 150.148 33.9253 149.153 33.328C148.174 32.7141 147.394 31.8678 146.813 30.7893C146.249 29.6942 145.967 28.458 145.967 27.0808C145.967 25.7036 146.249 24.484 146.813 23.4221C147.394 22.3601 148.174 21.5388 149.153 20.958C150.148 20.3607 151.243 20.062 152.438 20.062ZM157.192 27.1306C157.192 26.1848 156.993 25.3634 156.595 24.6665C156.213 23.9696 155.707 23.4387 155.076 23.0736C154.446 22.7086 153.765 22.5261 153.035 22.5261C152.305 22.5261 151.625 22.7086 150.994 23.0736C150.364 23.4221 149.85 23.9447 149.451 24.6416C149.07 25.3219 148.879 26.135 148.879 27.0808C148.879 28.0266 149.07 28.8562 149.451 29.5697C149.85 30.2832 150.364 30.8308 150.994 31.2124C151.642 31.5774 152.322 31.76 153.035 31.76C153.765 31.76 154.446 31.5774 155.076 31.2124C155.707 30.8474 156.213 30.3164 156.595 29.6195C156.993 28.906 157.192 28.0764 157.192 27.1306ZM169.618 22.3269C170.099 21.6632 170.755 21.124 171.585 20.7091C172.431 20.2777 173.368 20.062 174.397 20.062C175.608 20.062 176.703 20.3524 177.682 20.9331C178.661 21.5139 179.433 22.3435 179.997 23.4221C180.561 24.484 180.843 25.7036 180.843 27.0808C180.843 28.458 180.561 29.6942 179.997 30.7893C179.433 31.8678 178.653 32.7141 177.658 33.328C176.679 33.9253 175.592 34.224 174.397 34.224C173.335 34.224 172.389 34.0166 171.56 33.6018C170.747 33.187 170.099 32.656 169.618 32.0089V34H166.781V15.582H169.618V22.3269ZM177.956 27.0808C177.956 26.135 177.757 25.3219 177.359 24.6416C176.977 23.9447 176.463 23.4221 175.816 23.0736C175.185 22.7086 174.505 22.5261 173.775 22.5261C173.061 22.5261 172.381 22.7086 171.734 23.0736C171.103 23.4387 170.589 23.9696 170.191 24.6665C169.809 25.3634 169.618 26.1848 169.618 27.1306C169.618 28.0764 169.809 28.906 170.191 29.6195C170.589 30.3164 171.103 30.8474 171.734 31.2124C172.381 31.5774 173.061 31.76 173.775 31.76C174.505 31.76 175.185 31.5774 175.816 31.2124C176.463 30.8308 176.977 30.2832 177.359 29.5697C177.757 28.8562 177.956 28.0266 177.956 27.0808ZM189.487 22.2772C189.901 21.5803 190.449 21.041 191.129 20.6594C191.826 20.2611 192.648 20.062 193.593 20.062V22.9989H192.872C191.76 22.9989 190.914 23.281 190.333 23.8452C189.769 24.4093 189.487 25.3883 189.487 26.7821V34H186.649V20.286H189.487V22.2772ZM198.256 27.0808C198.256 25.7036 198.538 24.484 199.102 23.4221C199.683 22.3601 200.463 21.5388 201.441 20.958C202.437 20.3607 203.54 20.062 204.752 20.062C205.648 20.062 206.527 20.2611 207.39 20.6594C208.269 21.041 208.966 21.5554 209.481 22.2025V15.582H212.343V34H209.481V31.9342C209.016 32.5979 208.369 33.1455 207.539 33.5769C206.726 34.0083 205.789 34.224 204.727 34.224C203.532 34.224 202.437 33.9253 201.441 33.328C200.463 32.7141 199.683 31.8678 199.102 30.7893C198.538 29.6942 198.256 28.458 198.256 27.0808ZM209.481 27.1306C209.481 26.1848 209.282 25.3634 208.883 24.6665C208.502 23.9696 207.996 23.4387 207.365 23.0736C206.735 22.7086 206.054 22.5261 205.324 22.5261C204.594 22.5261 203.914 22.7086 203.283 23.0736C202.653 23.4221 202.138 23.9447 201.74 24.6416C201.359 25.3219 201.168 26.135 201.168 27.0808C201.168 28.0266 201.359 28.8562 201.74 29.5697C202.138 30.2832 202.653 30.8308 203.283 31.2124C203.93 31.5774 204.611 31.76 205.324 31.76C206.054 31.76 206.735 31.5774 207.365 31.2124C207.996 30.8474 208.502 30.3164 208.883 29.6195C209.282 28.906 209.481 28.0764 209.481 27.1306Z" fill="#333333"/>
</g>
</svg>
