<!-- Generated by IcoMoon.io -->
<svg version="1.1" xmlns="http://www.w3.org/2000/svg" width="32" height="32" viewBox="0 0 32 32">
<title>man</title>
<path d="M9.344 1.2c-0.188 0.106-0.219 0.175-0.219 0.519 0 0.65 0.306 1.406 0.8 1.969l0.287 0.331-0.188 0.131c-0.613 0.444-1.119 1.119-1.387 1.85l-0.169 0.469-0.037 4.188-0.25 0.144c-0.531 0.306-0.775 0.881-0.731 1.713 0.025 0.406 0.069 0.6 0.206 0.881 0.363 0.731 1.131 1.231 1.894 1.231h0.356l0.206 0.531c0.419 1.056 1.181 2.15 2.112 3.019l0.581 0.544-0.1 1.094c-0.050 0.6-0.106 1.106-0.119 1.119s-1.363 0.344-3.006 0.731c-2.581 0.619-3.063 0.75-3.513 0.969-0.95 0.469-1.656 1.356-1.906 2.4-0.106 0.431-0.619 5.194-0.587 5.444s0.313 0.444 0.531 0.363c0.1-0.031 0.206-0.131 0.244-0.212 0.044-0.087 0.188-1.281 0.331-2.656s0.306-2.663 0.362-2.863c0.125-0.45 0.475-1.006 0.819-1.3 0.5-0.425 0.8-0.538 2.675-0.988 0.994-0.238 1.819-0.425 1.831-0.406 0.012 0.012-0.206 1.125-0.488 2.475-0.275 1.35-0.506 2.506-0.506 2.563 0 0.175 0.231 0.363 0.438 0.363 0.1 0 0.294-0.038 0.419-0.087 0.481-0.188 2.225-0.788 2.275-0.788 0.025 0 0.056 0.831 0.069 1.844 0.019 1.988 0.019 1.975 0.363 2.063 0.113 0.025 0.213 0 0.331-0.094l0.169-0.131v-3.5c0-1.919 0.025-3.494 0.050-3.494 0.031 0 0.131 0.087 0.238 0.194 0.256 0.269 0.825 0.587 1.313 0.744 1.088 0.331 2.519 0.006 3.244-0.75 0.1-0.1 0.2-0.188 0.231-0.188 0.025 0 0.050 1.575 0.050 3.494v3.5l0.169 0.131c0.119 0.094 0.219 0.119 0.331 0.094 0.344-0.087 0.344-0.075 0.363-2.063 0.012-1.012 0.044-1.844 0.075-1.844 0.025 0 0.606 0.194 1.294 0.438 0.681 0.238 1.313 0.438 1.413 0.438 0.188 0 0.419-0.194 0.419-0.356 0-0.063-0.231-1.219-0.506-2.569-0.281-1.35-0.5-2.462-0.488-2.475 0.012-0.019 0.837 0.163 1.831 0.406 1.875 0.45 2.175 0.556 2.675 0.988 0.344 0.294 0.694 0.85 0.819 1.3 0.056 0.2 0.219 1.488 0.363 2.863s0.288 2.569 0.331 2.656c0.038 0.081 0.144 0.181 0.244 0.212 0.219 0.081 0.5-0.113 0.531-0.363s-0.481-5.012-0.587-5.444c-0.244-1.031-0.969-1.938-1.906-2.4-0.456-0.225-0.925-0.356-3.512-0.969-1.644-0.394-3-0.725-3.012-0.738-0.006-0.006-0.063-0.512-0.113-1.113l-0.1-1.094 0.581-0.544c0.931-0.875 1.669-1.931 2.106-3.019l0.212-0.531h0.356c1.1 0 2.031-0.919 2.1-2.075 0.050-0.844-0.2-1.444-0.738-1.75l-0.25-0.144v-1.531c0-1.644-0.056-2.287-0.256-3.119-0.656-2.644-2.75-4.394-5.769-4.813-0.688-0.094-8.025-0.087-8.194 0.006zM18.2 2.175c2.594 0.631 4.1 2.319 4.425 4.95 0.031 0.287 0.063 1.194 0.063 2.006v1.475l-0.2 0.044c-0.194 0.044-0.231 0.019-0.756-0.531-0.756-0.787-0.887-1.088-1.050-2.319-0.156-1.219-0.156-1.219-0.337-1.338-0.137-0.094-0.212-0.088-1.044 0.063-2.119 0.375-4.35 0.388-6.425 0.031-0.394-0.069-0.806-0.144-0.919-0.162-0.313-0.056-0.488 0.169-0.544 0.675-0.2 1.856-0.331 2.2-1.144 3.050-0.525 0.55-0.563 0.575-0.75 0.531l-0.206-0.044v-1.85c0-2.006 0.031-2.263 0.35-2.894 0.238-0.463 0.787-0.987 1.287-1.231 0.438-0.206 0.55-0.325 0.55-0.594 0-0.119-0.081-0.219-0.325-0.4-0.45-0.331-0.781-0.712-0.963-1.1-0.281-0.6-0.669-0.55 3.65-0.519 3.606 0.019 3.819 0.031 4.338 0.156zM13.5 7.537c1.512 0.213 3.863 0.181 5.55-0.081 0.35-0.050 0.65-0.088 0.669-0.075 0.012 0.019 0.056 0.281 0.094 0.588 0.169 1.319 0.387 1.775 1.306 2.744l0.644 0.688-0.044 0.563c-0.163 2.125-0.894 3.862-2.212 5.244-0.944 0.988-2.238 1.794-3.081 1.919-1.131 0.169-2.419-0.438-3.775-1.781-1.438-1.425-2.206-3.169-2.375-5.387l-0.044-0.563 0.606-0.625c0.644-0.675 0.988-1.175 1.137-1.675 0.081-0.275 0.269-1.412 0.275-1.65 0-0.069 0.063-0.075 0.3-0.044 0.162 0.025 0.588 0.088 0.95 0.138zM9.238 11.475c0.113 0.031 0.137 0.088 0.137 0.269 0 0.213 0.131 1.256 0.225 1.781l0.044 0.244-0.262-0.037c-0.606-0.081-1.069-0.669-1.069-1.369 0-0.45 0.125-0.719 0.394-0.831 0.225-0.1 0.325-0.106 0.531-0.056zM23.281 11.525c0.275 0.119 0.406 0.381 0.406 0.838 0 0.7-0.462 1.287-1.069 1.369l-0.262 0.037 0.044-0.244c0.094-0.531 0.225-1.569 0.225-1.787 0-0.162 0.031-0.238 0.113-0.256 0.2-0.056 0.331-0.044 0.544 0.044zM15 19.9c0.944 0.256 1.8 0.156 2.769-0.319 0.462-0.231 0.606-0.281 0.606-0.206 0.006 0.050 0.044 0.531 0.094 1.063 0.094 1.081 0.063 1.438-0.2 1.988-0.219 0.462-0.681 0.919-1.188 1.156-0.394 0.188-0.475 0.2-1.081 0.2s-0.688-0.012-1.081-0.2c-0.506-0.238-0.969-0.694-1.188-1.156-0.262-0.55-0.294-0.906-0.2-1.988 0.050-0.531 0.088-1.019 0.094-1.075 0-0.087 0.094-0.056 0.519 0.169 0.281 0.15 0.669 0.313 0.856 0.369zM12.563 23.925v2.050l-1.037 0.363c-0.569 0.2-1.050 0.344-1.069 0.325-0.025-0.019 0.169-1.044 0.425-2.269l0.463-2.238 0.531-0.137c0.294-0.069 0.569-0.137 0.613-0.137 0.056-0.006 0.075 0.444 0.075 2.044zM20.156 22.019l0.5 0.137 0.462 2.238c0.256 1.225 0.45 2.25 0.425 2.269-0.019 0.019-0.5-0.125-1.069-0.331l-1.038-0.363v-2.050c0-1.906 0.006-2.044 0.113-2.038 0.056 0 0.331 0.063 0.606 0.137z"></path>
<path d="M12.825 9.925c-0.394 0.144-0.7 0.412-0.7 0.619 0 0.162 0.256 0.456 0.4 0.456 0.050 0 0.238-0.069 0.425-0.156 0.438-0.206 0.781-0.2 1.25 0.012 0.35 0.156 0.387 0.162 0.544 0.075 0.088-0.050 0.188-0.169 0.219-0.262 0.206-0.588-1.2-1.075-2.138-0.744z"></path>
<path d="M17.775 9.925c-0.625 0.219-0.863 0.488-0.725 0.794 0.131 0.287 0.337 0.325 0.75 0.131 0.469-0.206 0.819-0.206 1.25-0.006 0.419 0.194 0.481 0.194 0.669 0 0.294-0.287 0.169-0.556-0.4-0.844-0.394-0.194-1.113-0.231-1.544-0.075z"></path>
<path d="M13.375 11.481c-0.175 0.069-0.369 0.287-0.406 0.463-0.044 0.2 0.1 0.519 0.275 0.619 0.162 0.081 0.481 0.081 0.644-0.006s0.3-0.419 0.256-0.631c-0.056-0.306-0.488-0.556-0.769-0.444z"></path>
<path d="M18.25 11.481c-0.156 0.063-0.325 0.231-0.381 0.387-0.075 0.194 0.038 0.537 0.212 0.662 0.156 0.106 0.5 0.125 0.675 0.031 0.175-0.1 0.319-0.419 0.275-0.619-0.069-0.325-0.494-0.575-0.781-0.463z"></path>
<path d="M14.069 15.475c-0.269 0.338-0.113 0.581 0.525 0.819 0.344 0.125 0.588 0.169 1.15 0.194 0.838 0.038 1.394-0.050 1.881-0.288 0.425-0.213 0.531-0.419 0.331-0.688-0.169-0.225-0.288-0.231-0.85-0.044-0.669 0.219-1.544 0.225-2.206 0-0.581-0.194-0.675-0.194-0.831 0.006z"></path>
</svg>
