<svg width="220" height="282" viewBox="0 0 220 282" fill="none" xmlns="http://www.w3.org/2000/svg">
<g clip-path="url(#clip0_1_78)">
<path d="M26.3469 33.4833L179.302 10.9166V31.7666L54.5521 70.2666H26.3469V33.4833Z" fill="#206CA5"/>
<path d="M26.3469 200.233L77.448 199.767L54.552 145.183H26.3469V200.233Z" fill="#206CA5"/>
<path d="M26.3469 75.8667V96.0167H54.552V75.8667H26.3469Z" fill="#206CA5"/>
<path d="M26.3469 103.083V123.233H54.552V103.083H26.3469Z" fill="#206CA5"/>
<path d="M156.439 130.283V198.683H168.899V130.283H156.439Z" fill="#206CA5"/>
<path d="M26.3469 130.283V139.7H54.552V130.283H26.3469Z" fill="#206CA5"/>
<path d="M61.4872 143.65H17.6033V141.25H61.4872V143.65Z" fill="#206CA5"/>
<path d="M105.716 190.852H35.7668V188.452H105.716V190.852Z" fill="#206CA5"/>
<path d="M188.211 204.167H139.516V201.767H188.211V204.167Z" fill="#206CA5"/>
<path d="M61.4872 74.5667H17.6033V72.15H61.4872V74.5667Z" fill="#206CA5"/>
<path d="M181.011 44.2V0.0999756H183.416V44.2H181.011Z" fill="#206CA5"/>
<path d="M185.357 44.2V0.0999756H187.763V44.2H185.357Z" fill="#206CA5"/>
<path d="M151.627 110.95V88.1333H154.033V110.95H151.627Z" fill="#206CA5"/>
<path d="M171.072 164.483V141.667H173.462V164.483H171.072Z" fill="#206CA5"/>
<path d="M171.072 110.95V72.5834H173.462V110.95H171.072Z" fill="#206CA5"/>
<path d="M187.017 129H0.0166016V124.517H187.017V129Z" fill="#206CA5"/>
<path d="M156.439 165.517H59.3801V161.033H156.439V165.517Z" fill="#206CA5"/>
<path d="M149.802 101.783H0.0166016V97.3H149.802V101.783Z" fill="#206CA5"/>
<path d="M168.899 37.1666V123.233H156.439V41.0166L168.899 37.1666Z" fill="#206CA5"/>
<path d="M175.353 91.9834V100.8C187.962 102.083 197.818 112.8 197.818 125.817C197.818 138.833 187.962 149.533 175.353 150.833V159.65C192.807 158.333 206.561 143.683 206.561 125.817C206.561 107.933 192.807 93.3001 175.353 91.9834Z" fill="#206CA5"/>
<path d="M189.085 16V24.5992C201.833 27.2957 211.401 38.427 211.401 51.7616C211.401 67.1021 198.738 79.5488 183.13 79.5488C180.303 79.5488 183.247 79.5159 175 79.5159V88C181.658 88 180.336 88 183.13 88C203.489 88 220 71.7716 220 51.7616C220 33.741 206.617 18.7952 189.085 16Z" fill="#206CA5"/>
<path fill-rule="evenodd" clip-rule="evenodd" d="M30.8763 225.117C33.8517 225.117 36.0804 225.767 37.5626 227.067C39.0447 228.367 39.7858 230.217 39.7858 232.617C39.7858 233.694 39.6309 234.728 39.3212 235.717C39.0115 236.706 38.5138 237.583 37.828 238.35C37.1423 239.128 36.2297 239.739 35.0905 240.183C33.9512 240.639 32.5465 240.867 30.8763 240.867H29.0844V248.683H22.7466V225.117H30.8763ZM30.7436 230.267H29.101V235.683H30.3454C30.8984 235.683 31.4072 235.589 31.8718 235.4C32.3474 235.211 32.7235 234.906 33 234.483C33.2876 234.05 33.4313 233.483 33.4313 232.783C33.4313 232.039 33.2101 231.433 32.7677 230.967C32.3363 230.5 31.6616 230.267 30.7436 230.267Z" fill="#808080"/>
<path d="M57.4389 248.683H43.5189V225.117H57.4389V230.233H49.8567V233.933H56.8914V239.05H49.8567V243.5H57.4389V248.683Z" fill="#808080"/>
<path fill-rule="evenodd" clip-rule="evenodd" d="M61.5535 225.117H69.733C73.1287 225.117 75.5455 225.622 76.9834 226.633C78.4324 227.644 79.1568 229.094 79.1568 230.983C79.1568 232.017 78.9743 232.894 78.6093 233.617C78.2333 234.339 77.7687 234.906 77.2157 235.317C76.6516 235.739 76.0764 236.028 75.4902 236.183V236.333C76.1317 236.5 76.7677 236.767 77.3982 237.133C78.0397 237.511 78.5706 238.067 78.9909 238.8C79.4112 239.533 79.6214 240.528 79.6214 241.783C79.6214 243.217 79.2619 244.45 78.543 245.483C77.824 246.517 76.7954 247.306 75.457 247.85C74.1186 248.406 72.5259 248.683 70.6787 248.683H61.5535V225.117ZM67.8914 234.167H69.7994C70.8502 234.167 71.5912 233.95 72.0226 233.517C72.4429 233.072 72.6531 232.539 72.6531 231.917C72.6531 231.272 72.4097 230.783 71.9231 230.45C71.4364 230.106 70.6842 229.933 69.6666 229.933H67.8914V234.167ZM67.8914 238.833V243.783H70.1146C71.2207 243.783 71.995 243.544 72.4374 243.067C72.8688 242.589 73.0844 241.989 73.0844 241.267C73.0844 240.844 72.996 240.45 72.819 240.083C72.631 239.706 72.3102 239.406 71.8567 239.183C71.4032 238.95 70.7838 238.833 69.9985 238.833H67.8914Z" fill="#808080"/>
<path fill-rule="evenodd" clip-rule="evenodd" d="M99.9291 225.117C102.053 225.117 103.823 225.378 105.238 225.9C106.643 226.422 107.705 227.2 108.424 228.233C109.132 229.267 109.486 230.55 109.486 232.083C109.486 233.039 109.325 233.911 109.005 234.7C108.684 235.478 108.225 236.178 107.627 236.8C107.041 237.411 106.333 237.95 105.504 238.417L112.339 248.683H105.155L100.178 240.117H98.5686V248.683H92.2308V225.117H99.9291ZM99.8462 229.933H98.5852V235.317H99.7798C100.753 235.317 101.55 235.106 102.169 234.683C102.788 234.25 103.098 233.478 103.098 232.367C103.098 231.611 102.838 231.017 102.318 230.583C101.809 230.15 100.985 229.933 99.8462 229.933Z" fill="#808080"/>
<path d="M128.4 248.683H114.48V225.117H128.4V230.233H120.817V233.933H127.852V239.05H120.817V243.5H128.4V248.683Z" fill="#808080"/>
<path fill-rule="evenodd" clip-rule="evenodd" d="M146.915 248.683L145.754 244.267H138.139L136.944 248.683H129.976L137.641 225.017H146.086L153.834 248.683H146.915ZM144.443 239.05L143.448 235.183C143.337 234.761 143.177 234.161 142.967 233.383C142.768 232.606 142.569 231.8 142.369 230.967C142.17 230.133 142.021 229.444 141.922 228.9C141.822 229.444 141.684 230.111 141.507 230.9C141.33 231.689 141.147 232.472 140.959 233.25C140.771 234.017 140.611 234.661 140.478 235.183L139.466 239.05H144.443Z" fill="#808080"/>
<path fill-rule="evenodd" clip-rule="evenodd" d="M176.299 236.4C176.299 239.144 175.79 241.422 174.772 243.233C173.755 245.056 172.322 246.417 170.475 247.317C168.628 248.228 166.46 248.683 163.971 248.683H156.373V225.117H164.502C167.024 225.117 169.159 225.55 170.906 226.417C172.665 227.294 174.004 228.572 174.922 230.25C175.84 231.928 176.299 233.978 176.299 236.4ZM169.712 236.633C169.712 235.2 169.524 234.011 169.148 233.067C168.761 232.133 168.191 231.433 167.439 230.967C166.676 230.5 165.713 230.267 164.552 230.267H162.71V243.467H164.121C166.045 243.467 167.461 242.906 168.368 241.783C169.264 240.661 169.712 238.944 169.712 236.633Z" fill="#808080"/>
<path d="M188.875 233.85L192.923 225.117H199.775L192.06 239.483V248.683H185.673V239.683L177.958 225.117H184.86L188.875 233.85Z" fill="#808080"/>
<path fill-rule="evenodd" clip-rule="evenodd" d="M31.1916 258.017C33.3263 258.017 35.0961 258.278 36.5008 258.8C37.9166 259.322 38.9784 260.1 39.6863 261.133C40.4053 262.167 40.7647 263.45 40.7647 264.983C40.7647 265.939 40.6043 266.811 40.2836 267.6C39.9518 268.378 39.4927 269.078 38.9065 269.7C38.3092 270.311 37.6013 270.85 36.7828 271.317L43.6184 281.583H36.4178L31.457 273.017H29.8477V281.583H23.5098V258.017H31.1916ZM31.092 262.833H29.8477V268.217H31.0257C31.999 268.217 32.7954 268.005 33.4148 267.583C34.0342 267.15 34.3439 266.378 34.3439 265.267C34.3439 264.511 34.0895 263.917 33.5807 263.483C33.0609 263.05 32.2313 262.833 31.092 262.833Z" fill="#808080"/>
<path d="M59.6787 281.583H45.7421V258.017H59.6787V263.133H52.0799V266.833H59.1146V271.95H52.0799V276.4H59.6787V281.583Z" fill="#808080"/>
<path d="M74.2292 262.9C73.4771 262.9 72.8079 263.061 72.2217 263.383C71.6355 263.694 71.1322 264.15 70.7119 264.75C70.3026 265.35 69.9874 266.083 69.7662 266.95C69.545 267.817 69.4344 268.8 69.4344 269.9C69.4344 271.378 69.6224 272.622 69.9985 273.633C70.3745 274.644 70.9442 275.411 71.7074 275.933C72.4706 276.444 73.4273 276.7 74.5776 276.7C75.6284 276.7 76.6405 276.556 77.6138 276.267C78.5761 275.978 79.5495 275.628 80.5339 275.217V280.6C79.4942 281.067 78.4324 281.4 77.3484 281.6C76.2644 281.8 75.1141 281.9 73.8974 281.9C71.3534 281.9 69.2685 281.394 67.6425 280.383C66.0276 279.372 64.8331 277.961 64.0588 276.15C63.2956 274.35 62.914 272.256 62.914 269.867C62.914 268.078 63.1629 266.444 63.6606 264.967C64.1583 263.478 64.8884 262.189 65.8506 261.1C66.8129 260.011 68.002 259.167 69.4178 258.567C70.8446 257.978 72.4706 257.683 74.2956 257.683C75.4238 257.683 76.6184 257.811 77.8793 258.067C79.1402 258.333 80.368 258.756 81.5626 259.333L79.6214 264.35C78.7697 263.939 77.9014 263.594 77.0166 263.317C76.1428 263.039 75.2136 262.9 74.2292 262.9Z" fill="#808080"/>
<path d="M105.155 281.583H98.0045L93.359 272.567L91.4841 273.7V281.583H85.1131V258.017H91.4841V268.25C91.7496 267.739 92.0538 267.222 92.3967 266.7C92.7506 266.189 93.0935 265.7 93.4253 265.233L98.3529 258.017H105.288L97.8884 268.583L105.155 281.583Z" fill="#808080"/>
<path fill-rule="evenodd" clip-rule="evenodd" d="M129.644 269.767C129.644 271.589 129.428 273.244 128.997 274.733C128.555 276.222 127.874 277.5 126.956 278.567C126.038 279.644 124.86 280.472 123.422 281.05C121.973 281.617 120.242 281.9 118.229 281.9C116.26 281.9 114.557 281.617 113.119 281.05C111.681 280.472 110.498 279.65 109.569 278.583C108.639 277.506 107.948 276.222 107.495 274.733C107.041 273.244 106.814 271.578 106.814 269.733C106.814 267.289 107.224 265.161 108.042 263.35C108.85 261.539 110.094 260.133 111.775 259.133C113.468 258.144 115.63 257.65 118.262 257.65C120.939 257.65 123.113 258.15 124.783 259.15C126.464 260.15 127.692 261.556 128.466 263.367C129.251 265.189 129.644 267.322 129.644 269.767ZM113.501 269.767C113.501 271.189 113.661 272.411 113.982 273.433C114.303 274.456 114.811 275.239 115.508 275.783C116.205 276.328 117.112 276.6 118.229 276.6C119.402 276.6 120.331 276.328 121.017 275.783C121.702 275.239 122.2 274.456 122.51 273.433C122.808 272.411 122.958 271.189 122.958 269.767C122.958 267.644 122.609 265.961 121.912 264.717C121.205 263.483 119.988 262.867 118.262 262.867C117.123 262.867 116.2 263.144 115.492 263.7C114.795 264.267 114.286 265.067 113.965 266.1C113.656 267.122 113.501 268.344 113.501 269.767Z" fill="#808080"/>
<path d="M156.223 281.583H147.911L139.333 264.983H139.184C139.239 265.483 139.289 266.089 139.333 266.8C139.378 267.511 139.416 268.233 139.449 268.967C139.483 269.7 139.499 270.367 139.499 270.967V281.583H133.875V258.017H142.154L150.698 274.4H150.798C150.765 273.878 150.732 273.278 150.698 272.6C150.665 271.911 150.632 271.222 150.599 270.533C150.577 269.833 150.566 269.211 150.566 268.667V258.017H156.223V281.583Z" fill="#808080"/>
<path d="M175.22 281.583H161.284V258.017H175.22V263.133H167.621V266.833H174.656V271.95H167.621V276.4H175.22V281.583Z" fill="#808080"/>
<path fill-rule="evenodd" clip-rule="evenodd" d="M187.017 258.017C189.14 258.017 190.91 258.278 192.326 258.8C193.73 259.322 194.792 260.1 195.511 261.133C196.219 262.167 196.573 263.45 196.573 264.983C196.573 265.939 196.413 266.811 196.092 267.6C195.771 268.378 195.312 269.078 194.715 269.7C194.129 270.311 193.421 270.85 192.591 271.317L199.427 281.583H192.243L187.265 273.017H185.656V281.583H179.318V258.017H187.017ZM186.934 262.833H185.673V268.217H186.867C187.841 268.217 188.637 268.005 189.256 267.583C189.876 267.15 190.186 266.378 190.186 265.267C190.186 264.511 189.926 263.917 189.406 263.483C188.897 263.05 188.073 262.833 186.934 262.833Z" fill="#808080"/>
</g>
<defs>
<clipPath id="clip0_1_78">
<rect width="220" height="282" fill="white"/>
</clipPath>
</defs>
</svg>
