<svg version="1.2" xmlns="http://www.w3.org/2000/svg" viewBox="0 0 607 188" width="607" height="188">
	<title>New Project</title>
	<style>
		.s0 { fill: #206ca5 } 
		.s1 { fill: #808080 } 
	</style>
	<g id="Layer">
		<path id="Layer" class="s0" d="m24.2 30.7l140.4-20.7v19.2l-114.5 35.3h-25.9z"/>
		<path id="Layer" class="s0" d="m24.2 183.8l46.9-0.4-21-50.1h-25.9z"/>
		<path id="Layer" class="s0" d="m24.2 69.7h25.9v18.4h-25.9z"/>
		<path id="Layer" class="s0" d="m24.2 94.6h25.9v18.5h-25.9z"/>
		<path id="Layer" class="s0" d="m143.6 119.6h11.4v62.8h-11.4z"/>
		<path id="Layer" class="s0" d="m24.2 119.6h25.9v8.6h-25.9z"/>
		<path id="Layer" class="s0" d="m16.2 129.7h40.2v2.2h-40.2z"/>
		<path id="Layer" class="s0" d="m32.8 173h64.2v2.2h-64.2z"/>
		<path id="Layer" class="s0" d="m128.1 185.2h44.7v2.2h-44.7z"/>
		<path id="Layer" class="s0" d="m16.2 66.2h40.2v2.3h-40.2z"/>
		<path id="Layer" class="s0" d="m166.2 0.1h2.2v40.5h-2.2z"/>
		<path id="Layer" class="s0" d="m170.2 0.1h2.2v40.5h-2.2z"/>
		<path id="Layer" class="s0" d="m139.2 80.9h2.2v21h-2.2z"/>
		<path id="Layer" class="s0" d="m157 130.1h2.2v20.9h-2.2z"/>
		<path id="Layer" class="s0" d="m157 66.6h2.2v35.3h-2.2z"/>
		<path id="Layer" class="s0" d="m0 114.3h171.7v4.1h-171.7z"/>
		<path id="Layer" class="s0" d="m54.5 147.8h89.1v4.1h-89.1z"/>
		<path id="Layer" class="s0" d="m0 89.3h137.5v4.1h-137.5z"/>
		<path id="Layer" class="s0" d="m155 34.1v79h-11.4v-75.4z"/>
		<path id="Layer" class="s0" d="m161 84.4v8.1c11.5 1.2 20.6 11.1 20.6 23 0 12-9.1 21.8-20.6 23v8.1c16-1.2 28.6-14.7 28.6-31.1 0-16.4-12.6-29.8-28.6-31.1z"/>
		<path id="Layer" class="s0" d="m173.6 14.7v7.9c11.7 2.5 20.5 12.7 20.5 24.9 0 14.1-11.7 25.5-26 25.5-2.6 0 0.1 0-7.5 0v7.8c6.2 0 4.9 0 7.5 0 18.7 0 33.9-14.9 33.9-33.3 0-16.5-12.3-30.2-28.4-32.8z"/>
		<g id="Folder 1">
			<path id="Layer" fill-rule="evenodd" class="s1" d="m252.9 47q9.4 0 14 4.1 4.7 4.1 4.7 11.6 0 3.4-1 6.5-0.9 3.1-3.1 5.5-2.2 2.5-5.7 3.9-3.6 1.4-8.9 1.4h-3.7v16.4h-13.3v-49.4zm-0.3 10.8h-3.4v11.4h2.6q1.7 0 3.2-0.6 1.5-0.6 2.4-2 0.9-1.3 0.9-3.5 0-2.4-1.4-3.8-1.4-1.5-4.3-1.5z"/>
			<path id="Layer" class="s1" d="m308.6 96.4h-29.2v-49.4h29.2v10.7h-15.9v7.8h14.7v10.7h-14.7v9.3h15.9z"/>
			<path id="Layer" fill-rule="evenodd" class="s1" d="m317.2 47h17.1q10.7 0 15.2 3.2 4.6 3.2 4.6 9.1 0 3.3-1.2 5.5-1.2 2.3-2.9 3.6-1.8 1.3-3.6 1.8v0.3q2 0.5 4 1.7 2 1.2 3.3 3.5 1.3 2.3 1.3 6.2 0 4.5-2.2 7.8-2.3 3.2-6.5 4.9-4.2 1.8-10 1.8h-19.1zm13.3 18.9h4q3.3 0 4.6-1.3 1.3-1.4 1.3-3.4 0-2-1.5-3-1.5-1.1-4.7-1.1h-3.7zm0 9.7v10.4h4.6q3.5 0 4.9-1.5 1.3-1.5 1.3-3.8 0-1.3-0.5-2.4-0.6-1.2-2-1.9-1.5-0.8-3.9-0.8z"/>
			<path id="Layer" fill-rule="evenodd" class="s1" d="m397.6 47q6.6 0 11.1 1.7 4.4 1.6 6.6 4.9 2.3 3.2 2.3 8 0 3-1 5.5-1 2.4-2.9 4.4-1.9 1.9-4.5 3.4l14.3 21.5h-15l-10.4-18h-3.4v18h-13.3v-49.4zm-0.1 10.1h-2.7v11.3h2.5q3.1 0 5-1.3 2-1.4 2-4.9 0-2.4-1.7-3.7-1.6-1.4-5.1-1.4z"/>
			<path id="Layer" class="s1" d="m457.2 96.4h-29.2v-49.4h29.2v10.7h-15.9v7.8h14.7v10.7h-14.7v9.3h15.9z"/>
			<path id="Layer" fill-rule="evenodd" class="s1" d="m495.9 96.4l-2.4-9.3h-15.9l-2.5 9.3h-14.6l16-49.6h17.7l16.2 49.6zm-5.1-20.2l-2.1-8.1q-0.4-1.3-1-3.8-0.7-2.4-1.3-5-0.6-2.6-0.9-4.3-0.3 1.7-0.9 4.1-0.5 2.5-1.1 5-0.6 2.4-1 4l-2.2 8.1z"/>
			<path id="Layer" fill-rule="evenodd" class="s1" d="m557.5 70.7q0 8.6-3.2 14.3-3.2 5.7-9 8.5-5.8 2.9-13.6 2.9h-15.9v-49.4h17q7.9 0 13.4 2.8 5.5 2.7 8.4 8 2.9 5.3 2.9 12.9zm-13.8 0.5q0-4.6-1.2-7.5-1.2-3-3.6-4.4-2.4-1.5-6-1.5h-3.9v27.7h3q6 0 8.9-3.6 2.8-3.5 2.8-10.7z"/>
			<path id="Layer" class="s1" d="m583.8 65.3l8.5-18.3h14.3l-16.1 30.1v19.3h-13.4v-18.9l-16.1-30.5h14.4z"/>
			<path id="Layer" fill-rule="evenodd" class="s1" d="m253.6 115.9q6.7 0 11.1 1.7 4.5 1.6 6.7 4.9 2.3 3.2 2.3 8 0 3-1.1 5.5-1 2.4-2.8 4.4-1.9 1.9-4.5 3.4l14.3 21.5h-15.1l-10.3-18h-3.4v18h-13.3v-49.4zm-0.2 10.1h-2.6v11.3h2.5q3 0 5-1.3 1.9-1.4 1.9-4.9 0-2.4-1.6-3.7-1.6-1.4-5.2-1.4z"/>
			<path id="Layer" class="s1" d="m313.3 165.3h-29.2v-49.4h29.2v10.7h-16v7.8h14.8v10.7h-14.8v9.3h16z"/>
			<path id="Layer" class="s1" d="m343.7 126.2q-2.3 0-4.2 1-1.8 0.9-3.1 2.8-1.3 1.9-2 4.6-0.7 2.8-0.7 6.2 0 4.7 1.2 7.8 1.2 3.2 3.6 4.9 2.3 1.6 6 1.6 3.3 0 6.3-0.9 3-1 6.1-2.2v11.2q-3.2 1.5-6.6 2.1-3.4 0.6-7.3 0.6-8 0-13.1-3.1-5-3.2-7.5-8.9-2.4-5.6-2.4-13.2 0-5.6 1.6-10.2 1.6-4.7 4.6-8.1 3-3.4 7.5-5.3 4.4-1.9 10.2-1.9 3.5 0 7.5 0.8 3.9 0.9 7.7 2.7l-4.1 10.5q-2.7-1.3-5.4-2.2-2.8-0.8-5.9-0.8z"/>
			<path id="Layer" class="s1" d="m408.5 165.3h-15l-9.7-18.9-3.9 2.4v16.5h-13.4v-49.4h13.4v21.5q0.8-1.6 1.9-3.3 1.1-1.6 2.1-3.1l10.4-15.1h14.5l-15.5 22.2z"/>
			<path id="Layer" fill-rule="evenodd" class="s1" d="m459.8 140.5q0 5.8-1.4 10.4-1.4 4.7-4.2 8.1-2.9 3.4-7.4 5.2-4.6 1.7-10.9 1.7-6.2 0-10.7-1.7-4.5-1.8-7.5-5.2-2.9-3.4-4.3-8.1-1.4-4.6-1.4-10.4 0-7.7 2.5-13.4 2.6-5.7 7.9-8.8 5.3-3.1 13.5-3.1 8.5 0 13.7 3.1 5.3 3.1 7.7 8.8 2.5 5.8 2.5 13.4zm-33.8 0q0 4.5 1 7.7 1 3.2 3.2 4.9 2.2 1.7 5.7 1.7 3.7 0 5.8-1.7 2.2-1.7 3.1-4.9 1-3.2 1-7.7 0-6.6-2.2-10.5-2.2-3.9-7.7-3.9-3.5 0-5.8 1.7-2.1 1.8-3.2 5.1-0.9 3.2-0.9 7.6z"/>
			<path id="Layer" class="s1" d="m515.4 165.3h-17.4l-17.9-34.8h-0.3q0.1 1.6 0.3 3.8 0.1 2.3 0.2 4.6 0.1 2.3 0.1 4.2v22.2h-11.8v-49.4h17.4l17.9 34.3h0.2q-0.1-1.6-0.2-3.7-0.1-2.2-0.2-4.4-0.1-2.2-0.1-3.9v-22.3h11.8z"/>
			<path id="Layer" class="s1" d="m555.2 165.3h-29.2v-49.4h29.2v10.7h-15.9v7.8h14.7v10.7h-14.7v9.3h15.9z"/>
			<path id="Layer" fill-rule="evenodd" class="s1" d="m579.9 115.9q6.7 0 11.1 1.7 4.5 1.6 6.7 4.9 2.2 3.2 2.2 8 0 3-1 5.5-1 2.4-2.8 4.4-1.9 1.9-4.5 3.4l14.3 21.5h-15l-10.5-18h-3.3v18h-13.3v-49.4zm-0.2 10.1h-2.6v11.3h2.5q3.1 0 5-1.3 1.9-1.4 1.9-4.9 0-2.4-1.6-3.7-1.6-1.4-5.2-1.4z"/>
		</g>
	</g>
</svg>