<!-- Generated by IcoMoon.io -->
<svg version="1.1" xmlns="http://www.w3.org/2000/svg" width="32" height="32" viewBox="0 0 32 32">
<title>watch</title>
<path d="M10.844 0.087c-0.694 0.225-1.244 0.681-1.512 1.262-0.106 0.238-0.262 0.944-0.519 2.344-0.2 1.106-0.375 2.013-0.387 2.019s-0.15 0.063-0.313 0.125c-1 0.369-1.856 1.331-2.156 2.419-0.106 0.369-0.112 0.919-0.112 7.744s0.006 7.375 0.112 7.744c0.3 1.087 1.156 2.050 2.156 2.419 0.162 0.063 0.3 0.119 0.313 0.125s0.188 0.913 0.387 2.019c0.256 1.4 0.412 2.106 0.519 2.344 0.213 0.456 0.644 0.881 1.156 1.119l0.419 0.2h8.188l0.413-0.2c0.494-0.244 0.938-0.694 1.15-1.163 0.1-0.212 0.269-1 0.512-2.313l0.363-1.994 0.363-0.15c0.95-0.381 1.663-1.144 2.056-2.188 0.137-0.363 0.144-0.419 0.163-4.044l0.019-3.669h0.387c0.531 0 0.819-0.094 1.113-0.356 0.494-0.444 0.519-0.55 0.544-2.175 0.012-0.875 0-1.588-0.044-1.813-0.144-0.775-0.7-1.219-1.538-1.219h-0.456l-0.025-1.144c-0.025-0.963-0.050-1.194-0.169-1.506-0.369-1.031-1.1-1.806-2.050-2.188l-0.363-0.15-0.363-1.994c-0.244-1.313-0.413-2.1-0.512-2.313-0.212-0.469-0.656-0.919-1.15-1.163l-0.413-0.2-4-0.013c-3.119-0.013-4.056 0.006-4.25 0.069zM19 1.131c0.675 0.306 0.744 0.456 1.119 2.525 0.175 0.963 0.319 1.787 0.319 1.831 0 0.056-1.137 0.075-5.469 0.075-3.006 0-5.469-0.006-5.469-0.019 0-0.006 0.15-0.831 0.338-1.837 0.356-1.938 0.425-2.131 0.8-2.4 0.419-0.3 0.425-0.3 4.362-0.3 3.613-0.006 3.725 0 4 0.125zM21.644 6.856c0.731 0.35 1.269 1.038 1.419 1.825 0.087 0.456 0.087 14.181 0 14.638-0.15 0.788-0.688 1.475-1.419 1.825l-0.425 0.2h-12.5l-0.356-0.175c-0.531-0.262-0.994-0.712-1.244-1.212l-0.213-0.425v-15.063l0.181-0.375c0.313-0.638 0.931-1.181 1.556-1.375 0.213-0.069 1.431-0.081 6.419-0.075l6.156 0.013 0.425 0.2zM25 11.813c0.119 0.119 0.125 0.206 0.125 1.65v1.531l-0.163 0.125c-0.125 0.094-0.256 0.131-0.5 0.131h-0.337v-3.563h0.375c0.294 0 0.4 0.025 0.5 0.125zM20.438 26.512c0 0.044-0.144 0.869-0.313 1.831-0.275 1.512-0.344 1.781-0.488 2-0.206 0.294-0.5 0.506-0.831 0.594-0.156 0.044-1.556 0.063-3.975 0.050l-3.737-0.019-0.3-0.175c-0.525-0.313-0.575-0.438-0.956-2.494-0.181-1.006-0.338-1.837-0.338-1.85 0-0.006 2.463-0.012 5.469-0.012 4.331 0 5.469 0.019 5.469 0.075z"></path>
<path d="M8.394 8.394c-0.644 0.65-0.769 0.806-0.769 0.963 0 0.294 0.213 0.519 0.487 0.519 0.213 0 0.294-0.063 1-0.769 0.7-0.7 0.762-0.781 0.762-0.994 0-0.275-0.225-0.487-0.519-0.487-0.156 0-0.313 0.125-0.963 0.769z"></path>
<path d="M9.706 9.137c-0.838 0.838-1.537 1.581-1.563 1.662-0.088 0.344 0.269 0.694 0.619 0.606 0.088-0.025 0.794-0.681 1.662-1.556 1.356-1.35 1.512-1.531 1.512-1.713 0-0.275-0.238-0.513-0.512-0.513-0.181 0-0.363 0.162-1.719 1.513z"></path>
</svg>
