<!-- Generated by IcoMoon.io -->
<svg version="1.1" xmlns="http://www.w3.org/2000/svg" width="32" height="32" viewBox="0 0 32 32">
<title>wedding-rings</title>
<path opacity="0.929" fill="#000" d="M31.969 17.906c-0.55-3.685-2.488-6.362-5.813-8.031-3.573-1.491-6.969-1.168-10.188 0.969-1.056-0.726-2.202-1.268-3.438-1.625 0.874-1.030 1.759-2.051 2.656-3.063 0.117-0.206 0.117-0.415 0-0.625-0.732-0.891-1.472-1.777-2.219-2.656-0.974-0.072-1.953-0.103-2.938-0.094-0.985-0.010-1.964 0.022-2.938 0.094-0.711 0.87-1.43 1.735-2.156 2.594-0.058 0.122-0.11 0.247-0.156 0.375 0.046 0.128 0.098 0.253 0.156 0.375 0.885 1.010 1.771 2.021 2.656 3.031-0.471 0.108-0.929 0.254-1.375 0.438-3.57 1.607-5.653 4.347-6.25 8.219 0 0.75 0 1.5 0 2.25 0.545 3.785 2.545 6.504 6 8.156 3.519 1.388 6.852 1.044 10-1.031 2.91 1.941 6.035 2.368 9.375 1.281 3.809-1.548 6.017-4.35 6.625-8.406 0-0.75 0-1.5 0-2.25zM7.656 3.781c0.208 0 0.417 0 0.625 0-0.137 0.505-0.293 1.005-0.469 1.5-0.464 0.072-0.933 0.082-1.406 0.031 0.43-0.503 0.847-1.013 1.25-1.531zM9.344 3.781c0.46-0.021 0.919 0 1.375 0.063 0.173 0.489 0.34 0.979 0.5 1.469-0.792 0.042-1.583 0.042-2.375 0 0.198-0.5 0.365-1.011 0.5-1.531zM11.781 3.781c0.23-0.010 0.459 0 0.688 0.031 0.381 0.511 0.777 1.011 1.188 1.5-0.46 0.052-0.918 0.042-1.375-0.031-0.18-0.497-0.346-0.997-0.5-1.5zM8.656 8.906c-0.726-0.831-1.455-1.664-2.188-2.5 0.452-0.082 0.899-0.082 1.344 0 0.3 0.829 0.582 1.662 0.844 2.5zM8.906 6.344c0.771-0.010 1.542 0 2.313 0.031-0.313 0.854-0.625 1.708-0.938 2.563-0.183 0.049-0.36 0.038-0.531-0.031-0.288-0.854-0.569-1.708-0.844-2.563zM12.281 6.344c0.459-0.010 0.917 0 1.375 0.031-0.763 0.825-1.502 1.669-2.219 2.531 0.261-0.855 0.542-1.709 0.844-2.563zM9.156 9.969c4.251-0.152 7.324 1.661 9.219 5.438 1.172 2.884 0.984 5.676-0.563 8.375-0.151 0.24-0.318 0.469-0.5 0.688-0.243-0.222-0.461-0.461-0.656-0.719 0.752-1.046 1.21-2.213 1.375-3.5 0.029-0.346-0.127-0.544-0.469-0.594-0.18 0.025-0.326 0.108-0.438 0.25-0.171 1.086-0.556 2.086-1.156 3-1.583-2.565-1.583-5.128 0-7.688 0.66 1.031 1.066 2.156 1.219 3.375 0.339 0.269 0.63 0.228 0.875-0.125-0.327-3.39-2.066-5.733-5.219-7.031-3.042-0.975-5.782-0.444-8.219 1.594-0.135 0.615 0.104 0.854 0.719 0.719 2.28-1.873 4.801-2.269 7.563-1.188 0.312 0.135 0.604 0.302 0.875 0.5-1.587 2.169-2.222 4.596-1.906 7.281 0.231 1.742 0.866 3.315 1.906 4.719-2.968 1.642-5.781 1.413-8.438-0.688-2.184-2.119-2.861-4.651-2.031-7.594 0.231-0.649 0.543-1.254 0.938-1.813 0.107-0.538-0.111-0.778-0.656-0.719-0.089 0.029-0.162 0.081-0.219 0.156-1.591 2.515-1.841 5.161-0.75 7.938 1.518 3.047 3.987 4.651 7.406 4.813 1.577-0.009 3.036-0.425 4.375-1.25 0.241 0.23 0.491 0.449 0.75 0.656-3.047 1.932-6.193 2.099-9.438 0.5-3.392-2.043-4.965-5.054-4.719-9.031 0.622-3.892 2.799-6.465 6.531-7.719 0.543-0.149 1.085-0.264 1.625-0.344zM20.969 9.969c4.028-0.169 7.038 1.477 9.031 4.938 1.64 3.602 1.244 6.956-1.188 10.063-2.834 2.992-6.219 3.857-10.156 2.594-3.511-1.529-5.459-4.206-5.844-8.031-0.083-2.169 0.511-4.127 1.781-5.875 0.292 0.167 0.521 0.396 0.688 0.688-1.851 2.891-1.966 5.849-0.344 8.875 2.031 3.060 4.875 4.321 8.531 3.781 1.606-0.337 2.991-1.076 4.156-2.219 0.159-0.571-0.060-0.81-0.656-0.719-2.266 2.065-4.849 2.586-7.75 1.563-0.364-0.172-0.718-0.359-1.063-0.563 2.072-2.963 2.52-6.161 1.344-9.594-0.343-0.864-0.791-1.666-1.344-2.406 1.794-1.104 3.711-1.375 5.75-0.813 2.872 0.982 4.549 2.972 5.031 5.969 0.162 1.716-0.203 3.31-1.094 4.781 0.061 0.447 0.311 0.614 0.75 0.5 0.369-0.436 0.65-0.925 0.844-1.469 1.040-2.974 0.602-5.703-1.313-8.188-2.612-2.785-5.727-3.546-9.344-2.281-0.427 0.203-0.843 0.422-1.25 0.656-0.228-0.197-0.447-0.405-0.656-0.625-0.039-0.059-0.028-0.111 0.031-0.156 1.249-0.795 2.604-1.284 4.063-1.469z"></path>
</svg>
