<!-- Generated by IcoMoon.io -->
<svg version="1.1" xmlns="http://www.w3.org/2000/svg" width="32" height="32" viewBox="0 0 32 32">
<title>woman</title>
<path opacity="0.9" fill="#000" d="M13.406-0.031q2.563 0 5.125 0 5.3 1.038 6.219 6.375 0.031 2.031 0.063 4.063 0.069 1.031 0.438 2 0.769 1.35 1.438 2.75 1.269 3.819-1.031 7.094-0.981 0.288-0.844-0.719 2.444-3.887-0.125-7.688-0.894-1.537-1-3.313-0.006-2.25-0.125-4.5-0.994-4.119-5.156-4.906-2.438-0.063-4.875 0-4.444 0.881-5.219 5.344-0.031 2.031-0.063 4.063-0.088 1.262-0.563 2.438-0.6 1.175-1.25 2.313-1.406 3.837 1.25 6.938 0.506 0.475 1.063 0.875 1.175-0.375 2.406-0.406 1.713-0.512 1.625-2.281-3.625-1.938-3.969-6.063-0.063-2.094 0-4.188 0.15-0.55 0.719-0.469 0.238 0.063 0.344 0.281 0.012 2.438 0.125 4.875 0.969 4.563 5.594 5.156 4.431-0.006 6.094-4.094 0.275-0.85 0.313-1.75 0.063-1.656 0-3.313-2.175-0.269-2.813-2.375-3.438 2.238-7.531 2.656-0.594-0.313-0.25-0.906 0.106-0.1 0.25-0.156 4.225-0.613 7.688-3.063 0.281-0.063 0.563 0 0.219 0.106 0.281 0.344 0.106 2.45 2.531 2.344 0.238 0.063 0.344 0.281 0.106 1.119 0.094 2.25 0.031 1.569-0.156 3.125-1.069 4.538-5.594 5.656-1.725 0.356-3.406-0.156-0.156 1.394-1.219 2.281 1.556 1.15 3.063 2.375 0.125 0.063 0.25 0 0.913-0.756 1.875-1.438 0.688-0.169 0.813 0.531-0.063 0.269-0.25 0.469-1.094 0.844-2.188 1.688-0.375 0.188-0.75 0-1.956-1.531-3.938-3.031-0.994 0.181-2 0.281-2.8 0.794-3.344 3.656-0.031 1.969-0.063 3.938-0.075 0.25-0.281 0.375-0.281 0-0.563 0-0.125-0.144-0.219-0.313-0.063-2.063 0-4.125 0.362-2.462 2.406-3.844-3.875-3.506-2.344-8.531 0.156-0.375 0.313-0.75 0.569-0.912 1.063-1.875 0.425-1.019 0.5-2.125 0.031-2.031 0.063-4.063 0.919-5.338 6.219-6.375zM26.531 31.969q-0.281 0-0.563 0-0.206-0.125-0.281-0.375-0.031-1.969-0.063-3.938-0.6-3.069-3.656-3.719-1.825 0.119-3.156-1.094-0.256-0.288-0.438-0.625-0.094-0.969 0.844-0.719 0.481 0.756 1.313 1.125 0.962 0.156 1.938 0.25 3.637 0.95 4.281 4.656 0.063 2.063 0 4.125-0.094 0.169-0.219 0.313z"></path>
</svg>
