<?xml version="1.0" encoding="UTF-8"?>
<svg id="Layer_1" data-name="Layer 1" xmlns="http://www.w3.org/2000/svg" width="1245.77" height="394.51" viewBox="0 0 1245.77 394.51">
  <defs>
    <style>
      .cls-1 {
        fill: #00b380;
      }

      .cls-2 {
        fill: #ff0645;
      }

      .cls-3 {
        fill: #a079fd;
      }

      .cls-4 {
        fill: #333;
      }
    </style>
  </defs>
  <path class="cls-2" d="m268.66,231.7s53.19,119.96,108.98,64.88c0,0-62.14-72.83-108.98-64.88Z"/>
  <path class="cls-1" d="m366.3,60.51s-33.94,100.37-122.66,136.73c0,0-2.95-100.81,112.08-156.4,0,0,29.59-12.03,10.58,19.66Z"/>
  <path class="cls-3" d="m33.11,157.58s36.71,17.28,42.99,30.29,26.15,68.61,53.61,78.73c27.46,10.12,32.62,5.78,35.12-10.54,2.5-16.32-23.5-117.11-131.72-98.48Z"/>
  <g>
    <path class="cls-4" d="m462.21,239.86c-1.42-1.42-2.13-3.17-2.13-5.25v-99.55c0-2.08.71-3.85,2.13-5.33,1.42-1.48,3.17-2.21,5.25-2.21h38.7c11.7,0,20.75,2.68,27.14,8.04,6.4,5.36,9.59,12.57,9.59,21.65,0,6.34-1.5,11.62-4.51,15.83-3.01,4.21-6.86,7.35-11.56,9.43,6.56,2.08,11.94,5.41,16.15,10,4.21,4.59,6.31,10.39,6.31,17.38,0,10.06-3.39,17.93-10.17,23.62-6.78,5.69-17.44,8.53-31.98,8.53h-39.69c-2.08,0-3.83-.71-5.25-2.13Zm40.02-62.81c9.73,0,16.56-1.64,20.5-4.92,3.94-3.28,5.9-7.87,5.9-13.78,0-5.14-2.11-9.24-6.31-12.3-4.21-3.06-9.98-4.59-17.3-4.59h-30.01v35.59h27.22Zm3.44,51c10.6,0,18.12-1.64,22.55-4.92,4.43-3.28,6.64-7.93,6.64-13.94,0-12.46-9.68-18.7-29.03-18.7h-30.83v37.56h30.67Z"/>
    <path class="cls-4" d="m593.33,239.36c-4.43-2.84-7.82-6.72-10.17-11.64-2.35-4.92-3.53-10.33-3.53-16.24v-46.58c0-2.08.74-3.83,2.21-5.25,1.48-1.42,3.25-2.13,5.33-2.13s3.83.71,5.25,2.13c1.42,1.42,2.13,3.17,2.13,5.25v44.94c0,13.34,6.01,20.01,18.04,20.01,5.47,0,10.36-1.42,14.68-4.26,4.32-2.84,8.39-6.67,12.22-11.48v-49.2c0-2.08.74-3.83,2.21-5.25,1.48-1.42,3.25-2.13,5.33-2.13s3.83.71,5.25,2.13c1.42,1.42,2.13,3.17,2.13,5.25v70.36c0,2.08-.71,3.85-2.13,5.33-1.42,1.48-3.17,2.21-5.25,2.21s-3.85-.74-5.33-2.21c-1.48-1.48-2.21-3.25-2.21-5.33v-6.72c-4.16,4.59-8.64,8.26-13.45,10.99-4.81,2.73-10.5,4.1-17.06,4.1-6.01,0-11.23-1.42-15.66-4.26Z"/>
    <path class="cls-4" d="m696.08,221.98v-50.84h-11.64c-.88,0-1.61-.3-2.21-.9-.6-.6-.9-1.34-.9-2.21,0-1.09.49-2.02,1.48-2.79l22.3-21.81c.98-.98,1.91-1.48,2.79-1.48s1.61.33,2.21.98c.6.66.9,1.42.9,2.3v13.12h18.53c1.86,0,3.39.6,4.59,1.8,1.2,1.2,1.8,2.73,1.8,4.59,0,1.75-.6,3.25-1.8,4.51-1.2,1.26-2.73,1.89-4.59,1.89h-18.53v49.53c0,4.26,1.01,6.97,3.03,8.12,2.02,1.15,4.56,1.72,7.63,1.72,2.19,0,4.37-.33,6.56-.98.44-.11.9-.22,1.39-.33.49-.11,1.12-.16,1.89-.16,1.53,0,2.9.57,4.1,1.72,1.2,1.15,1.8,2.54,1.8,4.18,0,2.52-1.26,4.43-3.77,5.74-4.26,1.97-8.8,2.95-13.61,2.95-15.96,0-23.94-7.22-23.94-21.65Z"/>
    <path class="cls-4" d="m769.55,221.98v-50.84h-11.64c-.88,0-1.61-.3-2.21-.9-.6-.6-.9-1.34-.9-2.21,0-1.09.49-2.02,1.48-2.79l22.3-21.81c.98-.98,1.91-1.48,2.79-1.48s1.61.33,2.21.98c.6.66.9,1.42.9,2.3v13.12h18.53c1.86,0,3.39.6,4.59,1.8,1.2,1.2,1.8,2.73,1.8,4.59,0,1.75-.6,3.25-1.8,4.51-1.2,1.26-2.73,1.89-4.59,1.89h-18.53v49.53c0,4.26,1.01,6.97,3.03,8.12,2.02,1.15,4.56,1.72,7.63,1.72,2.19,0,4.37-.33,6.56-.98.44-.11.9-.22,1.39-.33.49-.11,1.12-.16,1.89-.16,1.53,0,2.9.57,4.1,1.72,1.2,1.15,1.8,2.54,1.8,4.18,0,2.52-1.26,4.43-3.77,5.74-4.26,1.97-8.8,2.95-13.61,2.95-15.96,0-23.94-7.22-23.94-21.65Z"/>
    <path class="cls-4" d="m843.1,232.23c-7.49-7.6-11.23-18.29-11.23-32.06,0-7.76,1.42-14.92,4.26-21.48,2.84-6.56,7.22-11.86,13.12-15.91,5.9-4.04,13.17-6.07,21.81-6.07,8.09,0,15.09,1.89,20.99,5.66,5.9,3.77,10.39,8.8,13.45,15.09,3.06,6.29,4.59,13.15,4.59,20.58,0,2.08-.68,3.83-2.05,5.25-1.37,1.42-3.2,2.13-5.49,2.13h-55.6c.87,7.65,3.72,13.61,8.53,17.88,4.81,4.26,11.53,6.4,20.17,6.4,4.59,0,8.61-.44,12.05-1.31,3.44-.87,6.81-2.13,10.09-3.77.87-.44,1.86-.66,2.95-.66,1.75,0,3.28.6,4.59,1.8,1.31,1.21,1.97,2.73,1.97,4.59,0,2.41-1.42,4.43-4.26,6.07-4.26,2.41-8.47,4.21-12.63,5.41-4.16,1.2-9.51,1.8-16.07,1.8-13.34,0-23.75-3.8-31.24-11.4Zm52.23-38.95c-.33-5.36-1.72-9.84-4.18-13.45-2.46-3.61-5.49-6.26-9.1-7.95-3.61-1.69-7.27-2.54-10.99-2.54s-7.38.85-10.99,2.54c-3.61,1.7-6.62,4.35-9.02,7.95-2.41,3.61-3.77,8.09-4.1,13.45h48.38Z"/>
    <path class="cls-4" d="m942.73,240.68c-1.42-1.42-2.13-3.17-2.13-5.25v-70.36c0-2.08.71-3.85,2.13-5.33,1.42-1.48,3.17-2.21,5.25-2.21s3.85.74,5.33,2.21c1.48,1.48,2.21,3.25,2.21,5.33v7.05c7.65-10.28,16.24-15.42,25.75-15.42h.82c2.08,0,3.8.71,5.17,2.13,1.37,1.42,2.05,3.17,2.05,5.25s-.71,3.77-2.13,5.08c-1.42,1.31-3.23,1.97-5.41,1.97h-.82c-5.25,0-10.06,1.29-14.43,3.85-4.38,2.57-8.04,6.1-10.99,10.58v49.86c0,2.08-.74,3.83-2.21,5.25-1.48,1.42-3.25,2.13-5.33,2.13s-3.83-.71-5.25-2.13Z"/>
    <path class="cls-4" d="m1022.6,240.68c-1.42-1.42-2.13-3.17-2.13-5.25v-64.29h-9.68c-1.75,0-3.25-.63-4.51-1.89-1.26-1.25-1.89-2.76-1.89-4.51,0-1.86.63-3.39,1.89-4.59,1.26-1.2,2.76-1.8,4.51-1.8h9.68v-9.51c0-6.56,1.17-11.94,3.53-16.15,2.35-4.21,5.41-7.27,9.18-9.18,3.77-1.91,7.73-2.87,11.89-2.87,5.14,0,9.89,1.09,14.27,3.28,1.09.55,1.99,1.34,2.71,2.38.71,1.04,1.07,2.16,1.07,3.36,0,1.64-.6,3.09-1.8,4.35-1.2,1.26-2.62,1.89-4.26,1.89-1.2,0-2.46-.16-3.77-.49-2.62-.33-4.1-.49-4.43-.49-4.48,0-7.85,1.04-10.09,3.12-2.24,2.08-3.36,5.85-3.36,11.32v9.02h20.5c1.86,0,3.39.6,4.59,1.8,1.2,1.2,1.8,2.73,1.8,4.59,0,1.75-.6,3.25-1.8,4.51-1.2,1.26-2.73,1.89-4.59,1.89h-20.5v64.29c0,2.08-.74,3.83-2.21,5.25-1.48,1.42-3.25,2.13-5.33,2.13s-3.83-.71-5.25-2.13Z"/>
    <path class="cls-4" d="m1089.83,240.68c-1.42-1.42-2.13-3.17-2.13-5.25v-106.44c0-2.08.71-3.85,2.13-5.33,1.42-1.48,3.17-2.21,5.25-2.21,2.19,0,3.99.71,5.41,2.13,1.42,1.42,2.13,3.23,2.13,5.41v106.44c0,2.08-.74,3.83-2.21,5.25-1.48,1.42-3.25,2.13-5.33,2.13s-3.83-.71-5.25-2.13Z"/>
    <path class="cls-4" d="m1153.05,278.4c-1.37-1.42-2.05-3.12-2.05-5.08,0-.88.16-1.75.49-2.62l10.66-27.39-30.83-75.11c-.44-1.09-.66-2.13-.66-3.12,0-2.08.71-3.85,2.13-5.33,1.42-1.48,3.17-2.21,5.25-2.21,1.53,0,2.92.44,4.18,1.31,1.26.88,2.16,1.97,2.71,3.28l25.26,62.65,25.75-62.32c1.42-3.28,3.72-4.92,6.89-4.92,2.08,0,3.83.74,5.25,2.21,1.42,1.48,2.13,3.25,2.13,5.33,0,.98-.16,1.91-.49,2.79l-44.77,107.58c-1.53,3.39-3.83,5.08-6.89,5.08-1.97,0-3.64-.71-5-2.13Z"/>
  </g>
  <path class="cls-4" d="m227.23,167.46c-2.35,0-4.6-1.28-5.75-3.47-24.04-45.59-79.86-53.46-80.42-53.54-3.56-.47-6.06-3.73-5.6-7.29.47-3.56,3.72-6.05,7.28-5.6,2.12.28,44.13,6.09,73.93,37.61-.89-43.36,24.96-76.98,26.28-78.67,2.21-2.83,6.3-3.32,9.12-1.11s3.32,6.29,1.11,9.12c-.48.62-34.56,45.31-19.73,94.57.96,3.21-.66,6.62-3.76,7.89-.8.33-1.64.49-2.46.49Z"/>
  <path class="cls-4" d="m205.16,365.48c-10.19,0-20.32-2.8-29.35-8.42-20.54-12.77-30.96-37.15-27.88-65.21.52-4.77,1.26-9.26,2.19-13.5-15.48-.39-29.45-7.07-41.75-19.99-14.83-15.59-24.14-36.96-30.94-52.56-2.69-6.18-5.02-11.52-6.87-14.52-6.69-10.84-20.11-17.12-29.9-21.7-7.02-3.28-11.26-5.27-13.25-8.87-1.5-2.72-1.18-5.95.86-8.63,4.51-5.91,20.28-11.34,40.18-13.81,18.15-2.26,47.79-3.03,85.93,6.12,32.99,7.92,60.94,23.49,83.16,46.32,2.52-26.88,12.19-57.54,35.94-88.29,23.98-31.04,47.55-49.02,63.11-58.64,17.06-10.55,32.74-16.21,39.96-14.43,3.27.81,5.54,3.12,6.08,6.18.71,4.05-1.35,8.25-4.76,15.21-4.76,9.71-11.28,23.01-9.69,35.65.44,3.49,1.97,9.11,3.75,15.62,4.49,16.42,10.63,38.9,8.85,60.34-1.48,17.77-8.18,31.74-19.98,41.74,3.38,2.73,6.77,5.77,10.16,9.15,21.15,21.08,28.86,48.87,20.13,72.51-7.4,20.03-25.19,33.02-47.59,34.73-26.73,2.02-46.87-28.21-64.53-58.36,5.05,17.96,4.19,29.31-2.58,33.77-.88.58-1.88.93-2.92,1.04-8.35.88-16.49-8.31-24.22-27.22,4.92,35.04,8.74,72.61-13.26,86.62-9.53,6.08-20.21,9.12-30.83,9.12Zm-41.38-88.33c-1.27,4.86-2.27,10.22-2.92,16.13-2.52,22.96,5.64,42.68,21.82,52.75,14.15,8.8,31.9,8.56,46.33-.63,16.45-10.48,10.85-49.59,6.35-81.01-3.77-26.35-6.67-46.63.43-56.35-17.58-20.96-44.28-41.36-84.43-50.99-35.43-8.5-62.92-7.98-79.75-6.05-12.65,1.45-21.64,3.96-27.07,6.05.55.26,1.11.52,1.63.77,10.64,4.98,26.73,12.5,35.46,26.65,2.33,3.78,4.71,9.24,7.72,16.15,6.41,14.71,15.19,34.86,28.44,48.79,10.68,11.22,22.56,16.5,36.02,15.88,13.02-36.94,41.52-49.63,56.02-49.63h.1c8.9.04,16.34,5.94,17.71,14.02,1.54,9.09-3.3,26.96-52.96,44.45-3.7,1.3-7.34,2.31-10.9,3.01Zm86.12-74.25c11.54,2.91,21.62,20.38,34.74,43.11,16.25,28.15,36.46,63.2,57.87,61.54,17.2-1.32,30.8-11.14,36.39-26.27,6.95-18.82.39-41.35-17.11-58.8-4.16-4.14-8.3-7.7-12.39-10.74-3.22,1.69-6.68,3.19-10.39,4.49-49.34,17.39-64.3,6.43-68.82-1.65-4.08-7.29-1.97-16.69,5.02-22.36,11.11-9.01,41.14-16.86,74.55,4.01,10.84-7.96,16.78-19.5,18.06-34.92,1.59-19.16-4.2-40.36-8.43-55.84-1.99-7.27-3.56-13.01-4.11-17.43-2.07-16.5,5.75-32.44,10.92-42.99.26-.52.52-1.07.79-1.62-5.54,1.78-14.12,5.46-24.88,12.26-14.32,9.04-36.07,25.88-58.34,54.71-25.26,32.71-33.3,65.28-33.88,92.52Zm22.92,87.59h0,0Zm.38-6.4h0Zm-21.3-52.87c2.09,12.83,5.4,23.28,8.11,30.38,3.71,9.7,6.88,15.27,9.18,18.43-.2-3.79-1.2-9.91-4.28-19.46-2.38-7.37-6.44-17.81-13.02-29.35Zm-42.07-2.57c-4.73,0-15.52,2.71-26.26,12.91-4.71,4.48-10.11,11.14-14.54,20.76.44-.15.89-.3,1.34-.46,36.98-13.03,45.26-25.34,44.47-30.03-.35-2.06-2.81-3.18-4.95-3.19h-.05Zm96.38-32.74c-10.55,0-18.68,3.03-22.81,6.38-1.75,1.42-2.93,4.03-1.87,5.92,2.34,4.18,16.46,8.67,53.16-4.26.46-.16.92-.33,1.37-.5-11-5.52-21.24-7.54-29.86-7.54Z"/>
</svg>