<?xml version="1.0" encoding="UTF-8"?><svg id="Layer_1" xmlns="http://www.w3.org/2000/svg" viewBox="0 0 491.96 148.66"><defs><style>.cls-1{fill:#00b481;}.cls-2{fill:#ee224a;}.cls-3{fill:#8b79b8;}.cls-4{fill:#333;}</style></defs><g><path class="cls-4" d="m184.29,91.96v1.8c0,.88-.31,1.62-.93,2.21-.62.6-1.37.9-2.25.9s-1.62-.3-2.21-.9c-.6-.6-.9-1.34-.9-2.21v-44.91c0-.88.3-1.63.9-2.25.6-.62,1.34-.93,2.21-.93.92,0,1.68.3,2.28.9.6.6.9,1.36.9,2.28v16.95c3.37-3.51,7.31-5.26,11.83-5.26,2.86,0,5.57.73,8.13,2.18,2.56,1.45,4.64,3.58,6.23,6.37,1.59,2.79,2.39,6.06,2.39,9.79s-.8,7-2.39,9.79c-1.59,2.79-3.67,4.91-6.23,6.37-2.56,1.45-5.27,2.18-8.13,2.18-4.52,0-8.47-1.75-11.83-5.26Zm19.17-3.88c2.08-2.17,3.11-5.24,3.11-9.2s-1.04-7.03-3.11-9.2c-2.08-2.17-4.82-3.25-8.24-3.25-2.12,0-4.12.47-5.99,1.42-1.87.95-3.52,2.2-4.95,3.77v14.53c1.43,1.57,3.08,2.83,4.95,3.77,1.87.95,3.86,1.42,5.99,1.42,3.41,0,6.16-1.08,8.24-3.25Z"/><path class="cls-4" d="m231.66,95.42c-1.87-1.2-3.3-2.84-4.29-4.91-.99-2.08-1.49-4.36-1.49-6.85v-19.65c0-.88.31-1.61.93-2.21.62-.6,1.37-.9,2.25-.9s1.61.3,2.21.9c.6.6.9,1.34.9,2.21v18.96c0,5.63,2.54,8.44,7.61,8.44,2.31,0,4.37-.6,6.19-1.8,1.82-1.2,3.54-2.81,5.16-4.84v-20.76c0-.88.31-1.61.93-2.21.62-.6,1.37-.9,2.25-.9s1.61.3,2.21.9c.6.6.9,1.34.9,2.21v29.69c0,.88-.3,1.63-.9,2.25-.6.62-1.34.93-2.21.93s-1.63-.31-2.25-.93c-.62-.62-.93-1.37-.93-2.25v-2.84c-1.75,1.94-3.65,3.48-5.67,4.64-2.03,1.15-4.43,1.73-7.2,1.73-2.54,0-4.74-.6-6.61-1.8Z"/><path class="cls-4" d="m275.01,88.08v-21.45h-4.91c-.37,0-.68-.13-.93-.38-.25-.25-.38-.56-.38-.93,0-.46.21-.85.62-1.18l9.41-9.2c.42-.41.81-.62,1.18-.62s.68.14.93.42c.25.28.38.6.38.97v5.54h7.82c.78,0,1.43.25,1.94.76.51.51.76,1.15.76,1.94,0,.74-.25,1.37-.76,1.9-.51.53-1.15.8-1.94.8h-7.82v20.9c0,1.8.43,2.94,1.28,3.43.85.48,1.93.73,3.22.73.92,0,1.84-.14,2.77-.41.18-.05.38-.09.59-.14.21-.05.47-.07.8-.07.65,0,1.22.24,1.73.73.51.48.76,1.07.76,1.76,0,1.06-.53,1.87-1.59,2.42-1.8.83-3.71,1.25-5.74,1.25-6.74,0-10.1-3.04-10.1-9.13Z"/><path class="cls-4" d="m306.01,88.08v-21.45h-4.91c-.37,0-.68-.13-.93-.38-.25-.25-.38-.56-.38-.93,0-.46.21-.85.62-1.18l9.41-9.2c.42-.41.81-.62,1.18-.62s.68.14.93.42c.25.28.38.6.38.97v5.54h7.82c.78,0,1.43.25,1.94.76.51.51.76,1.15.76,1.94,0,.74-.25,1.37-.76,1.9-.51.53-1.15.8-1.94.8h-7.82v20.9c0,1.8.43,2.94,1.28,3.43.85.48,1.93.73,3.22.73.92,0,1.84-.14,2.77-.41.18-.05.38-.09.59-.14.21-.05.47-.07.8-.07.65,0,1.22.24,1.73.73.51.48.76,1.07.76,1.76,0,1.06-.53,1.87-1.59,2.42-1.8.83-3.71,1.25-5.74,1.25-6.74,0-10.1-3.04-10.1-9.13Z"/><path class="cls-4" d="m337.05,92.41c-3.16-3.21-4.74-7.72-4.74-13.53,0-3.28.6-6.3,1.8-9.07,1.2-2.77,3.04-5.01,5.54-6.71,2.49-1.71,5.56-2.56,9.2-2.56,3.41,0,6.37.8,8.86,2.39,2.49,1.59,4.38,3.71,5.67,6.37,1.29,2.65,1.94,5.55,1.94,8.69,0,.88-.29,1.62-.87,2.21-.58.6-1.35.9-2.32.9h-23.46c.37,3.23,1.57,5.74,3.6,7.54,2.03,1.8,4.87,2.7,8.51,2.7,1.94,0,3.63-.18,5.09-.55,1.45-.37,2.87-.9,4.26-1.59.37-.18.78-.28,1.25-.28.74,0,1.38.25,1.94.76.55.51.83,1.15.83,1.94,0,1.01-.6,1.87-1.8,2.56-1.8,1.02-3.58,1.78-5.33,2.28-1.75.51-4.01.76-6.78.76-5.63,0-10.02-1.6-13.18-4.81Zm22.04-16.44c-.14-2.26-.73-4.15-1.76-5.67-1.04-1.52-2.32-2.64-3.84-3.36-1.52-.71-3.07-1.07-4.64-1.07s-3.11.36-4.64,1.07c-1.52.72-2.79,1.83-3.81,3.36-1.02,1.52-1.59,3.41-1.73,5.67h20.41Z"/><path class="cls-4" d="m379.09,95.97c-.6-.6-.9-1.34-.9-2.21v-29.69c0-.88.3-1.63.9-2.25.6-.62,1.34-.93,2.21-.93s1.63.31,2.25.93c.62.62.93,1.37.93,2.25v2.98c3.23-4.34,6.85-6.51,10.86-6.51h.35c.88,0,1.6.3,2.18.9.58.6.87,1.34.87,2.21s-.3,1.59-.9,2.15c-.6.55-1.36.83-2.28.83h-.35c-2.21,0-4.25.54-6.09,1.63-1.85,1.08-3.39,2.57-4.64,4.46v21.04c0,.88-.31,1.62-.93,2.21-.62.6-1.37.9-2.25.9s-1.62-.3-2.21-.9Z"/><path class="cls-4" d="m412.79,95.97c-.6-.6-.9-1.34-.9-2.21v-27.13h-4.08c-.74,0-1.37-.26-1.9-.8-.53-.53-.8-1.16-.8-1.9,0-.78.26-1.43.8-1.94.53-.51,1.16-.76,1.9-.76h4.08v-4.01c0-2.77.5-5.04,1.49-6.82.99-1.78,2.28-3.07,3.88-3.88,1.59-.81,3.26-1.21,5.02-1.21,2.17,0,4.17.46,6.02,1.38.46.23.84.57,1.14,1,.3.44.45.91.45,1.42,0,.69-.25,1.3-.76,1.83-.51.53-1.11.8-1.8.8-.51,0-1.04-.07-1.59-.21-1.11-.14-1.73-.21-1.87-.21-1.89,0-3.31.44-4.26,1.31-.95.88-1.42,2.47-1.42,4.77v3.81h8.65c.78,0,1.43.25,1.94.76.51.51.76,1.15.76,1.94,0,.74-.25,1.37-.76,1.9-.51.53-1.15.8-1.94.8h-8.65v27.13c0,.88-.31,1.62-.93,2.21-.62.6-1.37.9-2.25.9s-1.62-.3-2.21-.9Z"/><path class="cls-4" d="m441.17,95.97c-.6-.6-.9-1.34-.9-2.21v-44.91c0-.88.3-1.63.9-2.25.6-.62,1.34-.93,2.21-.93.92,0,1.68.3,2.28.9.6.6.9,1.36.9,2.28v44.91c0,.88-.31,1.62-.93,2.21-.62.6-1.37.9-2.25.9s-1.62-.3-2.21-.9Z"/><path class="cls-4" d="m467.84,111.89c-.58-.6-.86-1.31-.86-2.15,0-.37.07-.74.21-1.11l4.5-11.56-13.01-31.69c-.18-.46-.28-.9-.28-1.31,0-.88.3-1.63.9-2.25.6-.62,1.34-.93,2.21-.93.65,0,1.23.19,1.76.55.53.37.91.83,1.14,1.38l10.66,26.44,10.86-26.3c.6-1.38,1.57-2.08,2.91-2.08.88,0,1.61.31,2.21.93.6.62.9,1.37.9,2.25,0,.42-.07.81-.21,1.18l-18.89,45.4c-.65,1.43-1.62,2.15-2.91,2.15-.83,0-1.53-.3-2.11-.9Z"/></g><g><path class="cls-2" d="m107,89.55s23.5,53.01,48.15,28.67c0,0-27.46-32.18-48.15-28.67Z"/><path class="cls-1" d="m150.15,13.91s-15,44.35-54.2,60.42c0,0-1.3-44.54,49.52-69.11,0,0,13.07-5.32,4.67,8.69Z"/><path class="cls-3" d="m2.93,56.8s16.22,7.64,18.99,13.38c2.78,5.75,11.55,30.31,23.69,34.79,12.14,4.47,14.41,2.56,15.52-4.66,1.11-7.21-10.38-51.74-58.2-43.52Z"/><path class="cls-4" d="m88.7,61.17c-1.04,0-2.03-.56-2.54-1.53-10.62-20.15-35.29-23.62-35.54-23.65-1.57-.21-2.68-1.65-2.47-3.22.21-1.57,1.64-2.67,3.21-2.48.94.12,19.5,2.69,32.66,16.62-.39-19.16,11.03-34.01,11.61-34.76.98-1.25,2.78-1.47,4.03-.49,1.25.98,1.47,2.78.49,4.03h0c-.15.2-15.29,19.98-8.72,41.79.43,1.42-.29,2.92-1.66,3.49-.36.15-.72.21-1.09.21Z"/><path class="cls-4" d="m78.95,148.66c-4.5,0-8.98-1.24-12.97-3.72-9.07-5.64-13.68-16.41-12.32-28.81.23-2.11.56-4.09.97-5.97-6.84-.17-13.01-3.12-18.45-8.83-6.55-6.89-10.67-16.33-13.67-23.22-1.19-2.73-2.22-5.09-3.03-6.42-2.96-4.79-8.88-7.56-13.21-9.59-3.1-1.45-4.98-2.33-5.85-3.92-.66-1.2-.52-2.63.38-3.81,1.99-2.61,8.96-5.01,17.75-6.1,8.02-1,21.12-1.34,37.97,2.71,14.58,3.5,26.93,10.38,36.74,20.47,1.12-11.88,5.38-25.43,15.88-39.01,10.59-13.72,21.01-21.66,27.89-25.91,7.54-4.66,14.47-7.16,17.66-6.37,1.45.36,2.45,1.38,2.69,2.73.31,1.79-.6,3.65-2.1,6.72-2.1,4.29-4.98,10.17-4.28,15.75.19,1.54.87,4.03,1.66,6.9,1.98,7.25,4.7,17.19,3.91,26.66-.65,7.85-3.61,14.02-8.83,18.44,1.49,1.21,2.99,2.55,4.49,4.05,9.34,9.31,12.75,21.59,8.9,32.04-3.27,8.85-11.13,14.59-21.03,15.35-.38.03-.76.04-1.13.04-11.24,0-19.83-12.94-27.38-25.83,2.23,7.94,1.85,12.95-1.14,14.92-.39.26-.83.41-1.29.46-3.69.39-7.29-3.67-10.7-12.03,2.17,15.48,3.86,32.08-5.86,38.27-4.21,2.68-8.93,4.03-13.62,4.03Zm-18.28-39.03c-.56,2.15-1,4.52-1.29,7.13-1.11,10.15,2.49,18.86,9.64,23.31,6.25,3.89,14.1,3.78,20.47-.28,7.27-4.63,4.79-21.91,2.81-35.8-1.67-11.64-2.95-20.61.19-24.9-7.77-9.26-19.57-18.27-37.31-22.53-15.65-3.76-27.8-3.53-35.24-2.67-5.59.64-9.56,1.75-11.96,2.67.25.12.49.23.72.34,4.7,2.2,11.81,5.52,15.67,11.77,1.03,1.67,2.08,4.08,3.41,7.14,2.83,6.5,6.71,15.4,12.57,21.56,4.72,4.96,9.97,7.29,15.92,7.02,5.75-16.32,18.35-21.93,24.75-21.93h.05c3.93.02,7.22,2.62,7.83,6.2.68,4.02-1.46,11.91-23.4,19.64-1.64.58-3.24,1.02-4.82,1.33Zm38.05-32.81c5.1,1.28,9.55,9,15.35,19.05,7.18,12.44,16.11,27.93,25.57,27.19,7.6-.58,13.61-4.92,16.08-11.61,3.07-8.31.17-18.27-7.56-25.98-1.84-1.83-3.67-3.4-5.47-4.74-1.42.75-2.95,1.41-4.59,1.98-21.8,7.68-28.41,2.84-30.41-.73-1.8-3.22-.87-7.38,2.22-9.88,4.91-3.98,18.18-7.45,32.94,1.77,4.79-3.52,7.42-8.62,7.98-15.43.7-8.46-1.86-17.83-3.73-24.67-.88-3.21-1.57-5.75-1.82-7.7-.91-7.29,2.54-14.33,4.82-19,.11-.23.23-.47.35-.72-2.45.78-6.24,2.41-11,5.42-6.33,4-15.94,11.43-25.78,24.17-11.16,14.45-14.71,28.84-14.97,40.88Zm10.13,38.7h0,0Zm.17-2.83h0Zm-9.41-23.36c.92,5.67,2.39,10.29,3.59,13.42,1.64,4.29,3.04,6.74,4.06,8.14-.09-1.68-.53-4.38-1.89-8.6-1.05-3.26-2.85-7.87-5.75-12.97Zm-18.59-1.13c-2.09,0-6.86,1.2-11.6,5.71-2.08,1.98-4.47,4.92-6.43,9.17.2-.07.39-.13.59-.2,16.34-5.76,20-11.2,19.65-13.27-.15-.91-1.24-1.41-2.19-1.41h-.02Zm42.59-14.46c-4.66,0-8.25,1.34-10.08,2.82-.77.63-1.3,1.78-.83,2.62,1.03,1.85,7.28,3.83,23.49-1.88.2-.07.41-.15.61-.22-4.86-2.44-9.38-3.33-13.19-3.33ZM151.69,3.47h0s0,0,0,0Z"/></g></svg>