<svg width="162" height="131" viewBox="0 0 162 131" fill="none" xmlns="http://www.w3.org/2000/svg">
<path d="M1 45C1 42.2386 3.23858 40 6 40V40C8.76142 40 11 42.2386 11 45V131H1V45Z" fill="#D9D9D9"/>
<path d="M150 44C150 41.2386 152.239 39 155 39V39C157.761 39 160 41.2386 160 44V130H150V44Z" fill="#D9D9D9"/>
<path d="M8.92675 48.2135C6.45361 49.4419 3.45289 48.4329 2.22447 45.9597V45.9597C0.996041 43.4866 2.00508 40.4859 4.47822 39.2574L81.5002 1.00012L85.9487 9.95616L8.92675 48.2135Z" fill="#D9D9D9"/>
<path d="M157.203 38.9501C159.665 40.2007 160.647 43.2104 159.396 45.6724V45.6724C158.145 48.1344 155.136 49.1163 152.674 47.8656L75.9999 8.91552L79.1702 2.67462C79.9206 1.19744 81.7264 0.608271 83.2036 1.35867L157.203 38.9501Z" fill="#D9D9D9"/>
</svg>
