<svg width="161" height="141" viewBox="0 0 161 141" fill="none" xmlns="http://www.w3.org/2000/svg">
<path d="M1 56C1 53.2386 3.23858 51 6 51H7C9.76142 51 12 53.2386 12 56V140H1V56Z" fill="#D9D9D9"/>
<path d="M150 6H158C159.657 6 161 7.34315 161 9V140H150V6Z" fill="#D9D9D9"/>
<path d="M2.44727 54.4589C1.09568 52.7115 1.69965 50.7307 3.79627 50.0346L154.512 -4.11891e-05L160.807 8.13897L6.2953 59.4339L2.44727 54.4589Z" fill="#D9D9D9"/>
<path d="M45.0405 139.652L44.198 39.567L53.6432 39.4875L54.4857 139.572L45.0405 139.652Z" fill="#D9D9D9"/>
<path d="M107.181 140.299L106.198 23.5669L115.643 23.4874L116.626 140.22L107.181 140.299Z" fill="#D9D9D9"/>
</svg>
